<svg width="64" height="61" viewBox="0 0 64 61" fill="none" xmlns="http://www.w3.org/2000/svg">
<path d="M56 26C56 12.7452 45.2549 2 32 2C18.7452 2 8 12.7452 8 26" stroke="black" stroke-width="3" stroke-linecap="round" stroke-linejoin="round"/>
<path d="M2 39.3153V33.6849C2 30.9315 3.87377 28.5318 6.54479 27.864L11.7634 26.5593C12.8995 26.2752 14 27.1344 14 28.3056V44.6946C14 45.8658 12.8995 46.725 11.7634 46.4409L6.54479 45.1362C3.87377 44.4684 2 42.0687 2 39.3153Z" stroke="black" stroke-width="3"/>
<path d="M62 39.3153V33.6849C62 30.9315 60.1262 28.5318 57.4553 27.864L52.2365 26.5593C51.1004 26.2752 50 27.1344 50 28.3056V44.6946C50 45.8658 51.1004 46.725 52.2365 46.4409L57.4553 45.1362C60.1262 44.4684 62 42.0687 62 39.3153Z" stroke="black" stroke-width="3"/>
<path d="M56 47V48.5C56 51.8138 53.3138 54.5 50 54.5H39.5" stroke="black" stroke-width="3"/>
<path d="M36.5 59H27.5C25.0147 59 23 56.9852 23 54.5C23 52.0148 25.0147 50 27.5 50H36.5C38.9852 50 41 52.0148 41 54.5C41 56.9852 38.9852 59 36.5 59Z" stroke="black" stroke-width="3"/>
</svg>
