<svg width="308" height="308" viewBox="0 0 308 308" fill="none" xmlns="http://www.w3.org/2000/svg">
<g clip-path="url(#clip0_172_2)">
<path fill-rule="evenodd" clip-rule="evenodd" d="M290.886 307.879C300.269 307.879 307.877 300.27 307.877 290.887V16.9919C307.877 7.60541 300.268 0 290.886 0H16.9919C7.60541 0 0 7.60656 0 16.9919V290.886C0 300.27 7.60541 307.878 16.9919 307.878L290.886 307.879ZM212.43 307.879V188.652H252.449L258.441 142.186H212.429V112.52C212.429 99.0676 216.164 89.9002 235.456 89.9002L260.06 89.8887V48.3306C255.805 47.7654 241.199 46.4999 224.208 46.4999C188.732 46.4999 164.445 68.1534 164.445 107.92V142.186H124.324V188.652H164.445V307.878L212.43 307.879Z" fill="white"/>
</g>
<defs>
<clipPath id="clip0_172_2">
<rect width="308" height="308" fill="white"/>
</clipPath>
</defs>
</svg>
