<svg width="45" height="51" viewBox="0 0 45 51" fill="none" xmlns="http://www.w3.org/2000/svg">
<path d="M2.12068 48.4288C1.88533 48.7447 1.70215 49.0605 1.70215 49.4157C1.70215 50.0672 2.27771 50.6001 3.35025 50.6001C3.97812 50.6001 4.50137 50.4027 4.91991 49.8895L5.83555 48.7643H38.8241L39.7135 49.8895C40.1583 50.4027 40.6553 50.6001 41.2832 50.6001C42.382 50.6001 42.9314 50.0672 42.9314 49.4157C42.9314 49.0605 42.7482 48.7447 42.5127 48.4288L35.2402 39.7829C36.1818 39.7237 37.1236 39.6447 38.0393 39.546C41.4402 39.2302 43.3238 37.3746 43.5854 34.7296C44.0562 30.0119 44.344 25.3533 44.344 20.4777C44.344 15.5823 44.0562 10.8843 43.5854 6.18635C43.3238 3.52153 41.4402 1.68572 38.0393 1.35019C32.8856 0.836973 27.5751 0.600098 22.4213 0.600098C17.1892 0.600098 11.8001 0.856705 6.59416 1.35019C3.2195 1.66599 1.30965 3.52153 1.04814 6.18635C0.577183 10.8843 0.315674 15.5823 0.315674 20.4777C0.315674 25.3533 0.577183 30.0119 1.04814 34.7296C1.30965 37.3746 3.2195 39.2105 6.59416 39.546C7.53595 39.6447 8.45159 39.7237 9.39338 39.8026L2.12068 48.4288ZM10.0474 10.1343C8.42544 10.1343 7.32663 9.30519 7.32663 8.08135C7.32663 6.83778 8.42544 6.00867 10.0474 6.00867H34.6384C36.2604 6.00867 37.3852 6.83778 37.3852 8.08135C37.3852 9.30519 36.2604 10.1343 34.6384 10.1343H10.0474ZM22.343 25.8468C17.7648 25.8468 12.6896 25.5903 8.73937 25.2547C7.61441 25.156 6.88194 24.5835 6.77734 23.7939C6.67261 22.7675 6.59416 21.2279 6.59416 19.7276C6.59416 18.188 6.67261 16.668 6.77734 15.6415C6.88194 14.852 7.61441 14.2796 8.73937 14.1808C12.3757 13.865 17.0846 13.6676 22.343 13.6676C27.6012 13.6676 32.3102 13.865 35.9726 14.1808C37.0713 14.2796 37.8301 14.852 37.9085 15.6415C38.0393 16.668 38.0917 18.188 38.0917 19.7276C38.0917 21.2279 38.0393 22.7675 37.9085 23.7939C37.8301 24.5835 37.0713 25.156 35.9726 25.2547C32.1532 25.6099 27.235 25.8468 22.343 25.8468ZM12.7943 35.2626C10.4136 35.2626 8.6085 33.9005 8.6085 32.1043C8.6085 30.3277 10.4136 28.946 12.7943 28.946C15.1487 28.946 16.98 30.3277 16.98 32.1043C16.98 33.9005 15.1487 35.2626 12.7943 35.2626ZM31.9961 35.2626C29.6156 35.2626 27.8104 33.9005 27.8104 32.1043C27.8104 30.3277 29.6156 28.946 31.9961 28.946C34.3507 28.946 36.1818 30.3277 36.1818 32.1043C36.1818 33.9005 34.3507 35.2626 31.9961 35.2626ZM21.9505 40.2961C25.1421 40.2961 28.386 40.2172 31.6037 40.0395L33.4612 42.2701H11.1722L13.0035 40.0592C15.9858 40.2171 18.9943 40.2961 21.9505 40.2961ZM7.61441 46.593L9.39338 44.4413H35.2402L37.019 46.593H7.61441Z" fill="black"/>
</svg>
