<svg width="211" height="61" viewBox="0 0 211 61" fill="none" xmlns="http://www.w3.org/2000/svg">
<path d="M86.2788 43.348C84.8619 43.348 83.5941 43.0621 82.4755 42.4904C81.3652 41.9104 80.4786 41.1149 79.8157 40.104C79.1611 39.0932 78.8131 37.9373 78.7717 36.6364H81.0213C81.0959 37.987 81.6262 39.0973 82.6122 39.9673C83.5982 40.8291 84.8204 41.2599 86.2788 41.2599C87.4139 41.2599 88.4248 40.9906 89.3114 40.4521C90.198 39.9052 90.8899 39.1594 91.3871 38.2148C91.8925 37.262 92.1452 36.1889 92.1452 34.9957C92.137 33.7528 91.8677 32.6591 91.3374 31.7145C90.8071 30.7616 90.0862 30.0159 89.1747 29.4773C88.2715 28.9387 87.2565 28.6694 86.1296 28.6694C85.2762 28.6611 84.4393 28.802 83.619 29.092C82.7987 29.382 82.1151 29.7549 81.5682 30.2106L79.244 29.9123L80.7727 17.5455H93.3509V19.6335H82.7241L81.7049 28.1474H81.8292C82.3926 27.6751 83.0762 27.2898 83.88 26.9915C84.692 26.6932 85.5496 26.544 86.4528 26.544C87.9525 26.544 89.299 26.9045 90.4922 27.6254C91.6937 28.3462 92.6424 29.3406 93.3384 30.6083C94.0427 31.8678 94.3949 33.3178 94.3949 34.9585C94.3949 36.5659 94.0427 38.0036 93.3384 39.2713C92.6424 40.5308 91.6812 41.5251 90.4549 42.2543C89.2369 42.9834 87.8448 43.348 86.2788 43.348ZM99.0744 37.5312V35.642L110.422 17.5455H111.814V20.7148H110.782L101.672 35.2816V35.4432H116.55V37.5312H99.0744ZM110.956 43V36.9347V36.0646V17.5455H113.169V43H110.956ZM131.436 43V41.2972L139.751 31.9506C140.837 30.7243 141.711 29.6761 142.374 28.8061C143.037 27.9361 143.517 27.1323 143.816 26.3949C144.122 25.6574 144.275 24.891 144.275 24.0955C144.275 23.1261 144.048 22.2809 143.592 21.56C143.144 20.8308 142.527 20.2633 141.74 19.8572C140.953 19.4512 140.066 19.2482 139.08 19.2482C138.036 19.2482 137.121 19.4719 136.333 19.9194C135.554 20.3668 134.95 20.98 134.519 21.7589C134.088 22.5378 133.872 23.4326 133.872 24.4435H131.648C131.648 23.0349 131.971 21.7879 132.617 20.7024C133.272 19.6087 134.162 18.7511 135.289 18.1296C136.425 17.5082 137.709 17.1974 139.142 17.1974C140.559 17.1974 141.819 17.504 142.921 18.1172C144.023 18.7221 144.889 19.5465 145.518 20.5906C146.148 21.6346 146.463 22.8029 146.463 24.0955C146.463 25.0318 146.297 25.9392 145.966 26.8175C145.643 27.6958 145.083 28.6735 144.288 29.7507C143.492 30.8279 142.39 32.1454 140.982 33.7031L134.668 40.7504V40.9119H147.258V43H131.436ZM160.815 43.348C159.763 43.3397 158.736 43.1284 157.733 42.7141C156.73 42.2915 155.827 41.6162 155.023 40.6882C154.22 39.7519 153.582 38.5173 153.109 36.9844C152.637 35.4515 152.401 33.5664 152.401 31.3292C152.401 29.2577 152.583 27.3602 152.948 25.6367C153.312 23.9132 153.859 22.4218 154.588 21.1623C155.318 19.9028 156.229 18.9292 157.323 18.2415C158.417 17.5455 159.697 17.1974 161.163 17.1974C162.539 17.1974 163.753 17.4833 164.805 18.055C165.857 18.6185 166.711 19.4057 167.365 20.4165C168.02 21.4274 168.43 22.5916 168.596 23.9091H166.309C166.077 22.5668 165.526 21.4606 164.656 20.5906C163.786 19.7205 162.622 19.2855 161.163 19.2855C159.075 19.2855 157.46 20.255 156.316 22.1939C155.173 24.1245 154.597 26.8672 154.588 30.4219H154.75C155.156 29.6679 155.678 29.0174 156.316 28.4705C156.962 27.9154 157.696 27.4845 158.516 27.1779C159.336 26.863 160.198 26.7056 161.101 26.7056C162.518 26.7056 163.815 27.0661 164.991 27.7869C166.168 28.4995 167.109 29.4814 167.813 30.7326C168.517 31.9755 168.869 33.3965 168.869 34.9957C168.869 36.5121 168.534 37.9083 167.863 39.1843C167.2 40.4603 166.263 41.4754 165.054 42.2294C163.852 42.9834 162.439 43.3563 160.815 43.348ZM160.815 41.2599C161.926 41.2599 162.916 40.9782 163.786 40.4148C164.664 39.8513 165.356 39.0973 165.862 38.1527C166.367 37.1998 166.62 36.1475 166.62 34.9957C166.62 33.844 166.367 32.8 165.862 31.8636C165.356 30.9273 164.664 30.1816 163.786 29.6264C162.916 29.0713 161.926 28.7937 160.815 28.7937C159.97 28.7937 159.183 28.9677 158.454 29.3157C157.725 29.6554 157.091 30.1236 156.552 30.7202C156.022 31.3085 155.616 31.9838 155.334 32.7461C155.061 33.5084 154.957 34.308 155.023 35.1449C155.115 36.3132 155.417 37.3614 155.931 38.2894C156.453 39.2092 157.132 39.9342 157.969 40.4645C158.814 40.9948 159.763 41.2599 160.815 41.2599ZM181.994 43.348C180.37 43.348 178.924 43.0414 177.657 42.4283C176.389 41.8151 175.395 40.9782 174.674 39.9176C173.953 38.8487 173.592 37.6431 173.592 36.3008C173.592 35.2485 173.812 34.2666 174.251 33.3551C174.69 32.4354 175.295 31.6648 176.066 31.0433C176.836 30.4136 177.702 30.0034 178.663 29.8129V29.6761C177.412 29.3116 176.405 28.5948 175.643 27.5259C174.881 26.4487 174.504 25.2266 174.512 23.8594C174.504 22.5916 174.827 21.4564 175.482 20.4538C176.136 19.4512 177.027 18.6599 178.154 18.0799C179.289 17.4916 180.569 17.1974 181.994 17.1974C183.411 17.1974 184.683 17.4916 185.81 18.0799C186.937 18.6599 187.828 19.4512 188.482 20.4538C189.145 21.4564 189.481 22.5916 189.489 23.8594C189.481 25.2183 189.095 26.4405 188.333 27.5259C187.571 28.6031 186.568 29.3198 185.325 29.6761V29.8129C186.286 29.9951 187.148 30.4012 187.911 31.0309C188.673 31.6606 189.278 32.4354 189.725 33.3551C190.173 34.2666 190.396 35.2485 190.396 36.3008C190.396 37.6431 190.032 38.8487 189.303 39.9176C188.582 40.9782 187.587 41.8151 186.32 42.4283C185.06 43.0414 183.618 43.348 181.994 43.348ZM181.994 41.2599C183.204 41.2599 184.265 41.0445 185.176 40.6136C186.096 40.1745 186.813 39.5737 187.326 38.8114C187.848 38.0491 188.109 37.175 188.109 36.1889C188.109 35.1697 187.84 34.2624 187.301 33.467C186.763 32.6632 186.034 32.0294 185.114 31.5653C184.194 31.093 183.154 30.8569 181.994 30.8569C180.834 30.8569 179.79 31.093 178.862 31.5653C177.942 32.0294 177.213 32.6632 176.675 33.467C176.144 34.2624 175.879 35.1697 175.879 36.1889C175.879 37.175 176.132 38.0491 176.637 38.8114C177.151 39.5737 177.868 40.1745 178.788 40.6136C179.716 41.0445 180.785 41.2599 181.994 41.2599ZM181.994 28.8683C182.989 28.8683 183.879 28.657 184.667 28.2344C185.454 27.8118 186.075 27.2359 186.531 26.5067C186.995 25.7693 187.231 24.9324 187.239 23.9961C187.231 23.0681 186.999 22.2478 186.543 21.5352C186.088 20.8143 185.466 20.255 184.679 19.8572C183.9 19.4512 183.005 19.2482 181.994 19.2482C180.983 19.2482 180.08 19.4512 179.285 19.8572C178.498 20.255 177.876 20.8143 177.42 21.5352C176.973 22.2478 176.753 23.0681 176.762 23.9961C176.753 24.9324 176.977 25.7693 177.433 26.5067C177.897 27.2359 178.522 27.8118 179.31 28.2344C180.105 28.657 181 28.8683 181.994 28.8683Z" fill="black"/>
<circle cx="30.5" cy="30.5" r="30.5" fill="#FF9C07"/>
<line x1="28.0601" y1="14.895" x2="12.2001" y2="14.895" stroke="#FDFDFD" stroke-width="6"/>
<path d="M40.7381 14.8953H40.7719C40.7808 14.8956 40.795 14.8963 40.8141 14.8975C40.8846 14.9021 41.0162 14.9144 41.1913 14.9468C41.5459 15.0123 42.0415 15.1529 42.5639 15.4484L43.2335 15.8272L43.765 16.4323C44.1752 16.8994 44.6002 17.555 44.9513 18.4889L44.9735 18.5481L44.9891 18.5846C44.9937 18.5965 45.0038 18.6232 45.0182 18.664C45.0496 18.7531 45.1008 18.908 45.1589 19.1209C45.2754 19.5484 45.4162 20.1986 45.4826 21.0125L45.5642 22.0135L45.4718 23.022C45.4005 23.8009 45.2442 24.6514 44.9586 25.5512C44.9439 25.5817 44.9255 25.6192 44.9033 25.6627C44.8199 25.8265 44.6895 26.0645 44.5153 26.3322L44.2949 26.6712L44.0565 26.9588C43.8494 27.2087 43.6322 27.4289 43.4118 27.6063L40.0643 30.3023L43.7019 32.4863C43.7076 32.4904 43.715 32.4958 43.724 32.5025C43.7765 32.5415 43.8809 32.6235 44.0176 32.7525C44.2908 33.0104 44.6872 33.4509 45.0595 34.1095L45.5145 34.9144L45.7738 35.8859C45.9747 36.6385 46.1119 37.5613 46.1044 38.6804L46.1041 38.7221L46.1048 38.7526C46.1048 38.7526 46.1048 38.753 46.1048 38.753C46.1048 38.7533 46.1048 38.7542 46.1048 38.7564C46.1049 38.7619 46.1049 38.7734 46.1049 38.7906C46.1049 38.7945 46.1049 38.7988 46.1049 38.8033C46.1046 38.852 46.1036 38.934 46.0999 39.0445C46.0924 39.2664 46.0742 39.5977 46.0311 40.0008C45.9431 40.8233 45.7597 41.8639 45.3981 42.8603L44.8841 44.2766L44.0904 45.0633C43.5272 45.6214 42.7328 46.0675 41.3886 46.0779H41.3884C39.5032 46.0925 37.6711 46.1001 35.9743 46.1032L33.9919 46.1069L31.9692 46.103C31.0647 46.1013 30.246 46.0986 29.5349 46.0956V35.5055V32.5055H26.5349V28.4676H29.5349V25.4676V14.8953H31.7194H32.5537H34.7194H35.5537H40.7381Z" fill="#FF9C07" stroke="#FDFDFD" stroke-width="6" stroke-miterlimit="16" stroke-linecap="square" stroke-dasharray="192 71"/>
</svg>
