<svg width="206" height="207" viewBox="0 0 206 207" fill="none" xmlns="http://www.w3.org/2000/svg">
<path d="M31.7104 28.073C29.3662 28.1549 27.1508 29.1693 25.5514 30.8932C23.9521 32.617 23.0998 34.9091 23.182 37.2651L24.4229 72.799L68.6156 71.2558L67.0645 26.8384L31.7104 28.073ZM57.1797 60.5372L35.0833 61.3089L34.3078 39.1002L56.4041 38.3286L57.1797 60.5372Z" fill="white"/>
<path d="M27.9905 174.959C28.0728 177.315 29.0829 179.542 30.7986 181.15C32.5143 182.758 34.7951 183.616 37.1393 183.534L72.4934 182.299L70.9423 137.882L26.7496 139.425L27.9905 174.959ZM38.1856 150.144L60.2819 149.372L61.0575 171.581L38.9611 172.352L38.1856 150.144Z" fill="white"/>
<path d="M138.782 179.984L174.137 178.75C176.481 178.668 178.696 177.653 180.295 175.93C181.895 174.206 182.747 171.914 182.665 169.558L181.424 134.024L137.231 135.567L138.782 179.984ZM148.667 146.285L170.764 145.514L171.539 167.722L149.443 168.494L148.667 146.285Z" fill="white"/>
<path d="M168.708 23.289L133.354 24.5236L134.905 68.9409L179.097 67.3977L177.857 31.8638C177.774 29.5077 176.764 27.2807 175.048 25.6726C173.333 24.0645 171.052 23.2071 168.708 23.289ZM167.661 56.6792L145.565 57.4508L144.79 35.2421L166.886 34.4705L167.661 56.6792Z" fill="white"/>
<path d="M112.421 58.6082L112.033 47.5039L89.9365 48.2755L90.712 70.4842L101.76 70.0984L101.372 58.994L112.421 58.6082Z" fill="white"/>
<path d="M68.6156 71.2557L79.6638 70.8699L80.0515 81.9743L69.0034 82.3601L68.6156 71.2557Z" fill="white"/>
<path d="M80.0516 81.9744L102.148 81.2027L102.536 92.3071L80.4393 93.0787L80.0516 81.9744Z" fill="white"/>
<path d="M111.645 36.3995L112.033 47.5038L123.081 47.118L122.305 24.9093L78.1127 26.4526L78.8883 48.6613L89.9364 48.2754L89.5487 37.1711L111.645 36.3995Z" fill="white"/>
<path d="M24.8108 83.9034L35.859 83.5176L36.6345 105.726L25.5863 106.112L24.8108 83.9034Z" fill="white"/>
<path d="M69.3912 93.4645L69.779 104.569L58.7308 104.955L57.9553 82.746L46.9071 83.1318L47.6827 105.341L36.6345 105.726L37.0223 116.831L25.9741 117.216L26.3619 128.321L48.4582 127.549L48.0704 116.445L59.1186 116.059L59.5064 127.163L70.5546 126.778L70.1668 115.673L81.215 115.287L80.4394 93.0787L69.3912 93.4645Z" fill="white"/>
<path d="M115.961 92.931L127.01 92.5452L127.397 103.65L138.446 103.264L138.058 92.1594L149.106 91.7736L148.718 80.6692L126.622 81.4408L125.846 59.2322L114.798 59.618L115.186 70.7223L104.138 71.1081L104.525 82.2125L115.574 81.8267L115.961 92.931Z" fill="white"/>
<path d="M105.25 170.037L83.1538 170.809L83.5415 181.913L127.734 180.37L127.346 169.266L116.298 169.652L115.911 158.547L104.862 158.933L105.25 170.037Z" fill="white"/>
<path d="M125.408 113.744L125.02 102.64L113.972 103.026L113.584 91.9212L102.536 92.3071L102.923 103.411L91.8753 103.797L92.2631 114.902L103.311 114.516L103.699 125.62L114.747 125.234L114.359 114.13L125.408 113.744Z" fill="white"/>
<path d="M169.6 112.201L180.648 111.815L181.036 122.919L169.988 123.305L169.6 112.201Z" fill="white"/>
<path d="M125.408 113.744L158.552 112.587L158.94 123.691L125.795 124.849L125.408 113.744Z" fill="white"/>
<path d="M168.437 78.8879L157.389 79.2737L157.777 90.3781L146.728 90.7639L147.116 101.868L158.164 101.482L158.552 112.587L169.6 112.201L169.213 101.097L180.261 100.711L179.873 89.6065L168.825 89.9923L168.437 78.8879Z" fill="white"/>
<path d="M114.747 125.234L125.795 124.848L126.959 158.161L115.911 158.547L114.747 125.234Z" fill="white"/>
<path d="M82.766 159.705L93.8142 159.319L93.4264 148.215L104.475 147.829L104.087 136.724L93.0386 137.11L92.2631 114.902L81.2149 115.287L82.766 159.705Z" fill="white"/>
</svg>
