<svg width="45" height="50" viewBox="0 0 45 50" fill="none" xmlns="http://www.w3.org/2000/svg">
<path d="M40.6728 50H45L39.1211 42.3125C39.9246 41.1575 40.3827 39.8275 40.3827 38.3133V32.2333V30.8817V17.5483C40.3827 10.54 34.1695 6.65833 27.1888 5.48083L28.3934 2.24083C29.3022 2.59583 29.9483 3.46167 29.9483 4.4775H32.0577C32.0577 2.00833 30.007 0 27.487 0H17.5138C14.993 0 12.9431 2.00833 12.9431 4.47667H15.0525C15.0525 3.46167 15.6994 2.595 16.6082 2.24L17.812 5.48C10.8313 6.6575 4.61732 10.5392 4.61732 17.5475L4.61812 30.8808L4.61732 38.3133C4.61732 39.8267 5.07536 41.1575 5.87973 42.3125L0 50H4.32804L7.98589 44.44C8.71473 44.9833 9.54161 45.465 10.44 45.8883L7.8292 50H37.1716L34.5616 45.8883C35.4608 45.4642 36.2861 44.9825 37.0149 44.44L40.6728 50ZM27.1479 2.06583L25.9457 5.3C24.8006 5.16083 23.6459 5.09 22.5 5.09C21.3557 5.09 20.1994 5.16083 19.0551 5.30083L17.8529 2.06667L27.1479 2.06583ZM22.5 6.75667C30.3396 6.75667 38.7755 10.1333 38.7755 17.5483V30.5667H37.5453V15.8958C37.5453 14.5967 7.45634 14.5967 7.45634 15.8958V30.5667H6.22607L6.22527 17.5483C6.22446 10.1333 14.662 6.75667 22.5 6.75667ZM6.22446 32.5483H38.7755V38.3142C38.7755 43.7408 30.5887 46.5792 22.5 46.5792C14.4129 46.5792 6.22446 43.7408 6.22446 38.3142V32.5483Z" fill="black"/>
</svg>
