<svg width="41" height="51" viewBox="0 0 41 51" fill="none" xmlns="http://www.w3.org/2000/svg">
<path d="M40.1321 38.338V17.238C40.1321 10.263 32.6749 8.73804 22.9892 8.48804L25.1321 4.73804H34.4178V0.988037H5.84637V4.73804H19.4178L17.2749 8.48804C8.30351 8.76304 0.13208 10.313 0.13208 17.238V38.338C0.13208 41.963 3.53208 44.988 7.53208 45.763L2.98922 49.738V50.988H9.36065L15.0749 45.988H25.8464L31.5607 50.988H37.2749V49.738L32.9892 45.988H32.7607C37.5892 45.988 40.1321 42.563 40.1321 38.338ZM20.1321 42.238C18.9954 42.238 17.9053 41.8429 17.1016 41.1397C16.2979 40.4364 15.8464 39.4826 15.8464 38.488C15.8464 37.4935 16.2979 36.5396 17.1016 35.8364C17.9053 35.1331 18.9954 34.738 20.1321 34.738C21.2687 34.738 22.3588 35.1331 23.1625 35.8364C23.9663 36.5396 24.4178 37.4935 24.4178 38.488C24.4178 39.4826 23.9663 40.4364 23.1625 41.1397C22.3588 41.8429 21.2687 42.238 20.1321 42.238ZM34.4178 30.988H5.84637V18.488H34.4178V30.988Z" fill="black"/>
</svg>
