<svg width="48" height="54" viewBox="0 0 48 54" fill="none" xmlns="http://www.w3.org/2000/svg">
<path d="M38.215 27.0821C38.086 27.0821 37.9609 27.0976 37.8332 27.1041L35.6259 15.4087H41.152V12.0735H33.8097C33.5906 12.0734 33.3743 12.129 33.1766 12.2361C32.9789 12.3433 32.8049 12.4993 32.6672 12.6928C32.5295 12.8863 32.4316 13.1123 32.3808 13.3543C32.33 13.5962 32.3275 13.8481 32.3735 14.0913L33.2517 18.744H18.2252L16.7567 13.7411H20.5935V10.4058H10.3143V13.7411H13.6624L15.1912 18.9491L11.4173 27.5194C9.70454 26.9237 7.8726 26.935 6.16567 27.5518C4.45873 28.1685 2.95788 29.3615 1.86318 30.9716C0.768476 32.5818 0.131931 34.5326 0.0383919 36.564C-0.055147 38.5955 0.398764 40.611 1.33962 42.342C2.28047 44.073 3.66358 45.4373 5.30456 46.2529C6.94554 47.0685 8.76645 47.2967 10.5246 46.9071C12.2827 46.5175 13.8944 45.5286 15.145 44.0723C16.3956 42.6159 17.2257 40.7613 17.5244 38.7555H21.3571C21.7976 38.7567 22.2327 38.6448 22.6298 38.4283C23.0268 38.2117 23.3757 37.896 23.6503 37.5048L34.0152 22.7893L34.9604 27.7987C32.929 28.7231 31.2741 30.4743 30.3189 32.7103C29.3637 34.9462 29.1768 37.5063 29.7948 39.8903C30.4129 42.2743 31.7913 44.3111 33.661 45.6026C35.5306 46.8942 37.7571 47.3478 39.9055 46.8747C42.0539 46.4017 43.9698 45.0361 45.279 43.0447C46.5881 41.0533 47.1965 38.5791 46.9853 36.1055C46.774 33.6319 45.7583 31.3366 44.1365 29.6681C42.5147 27.9995 40.4034 27.0774 38.215 27.0821ZM8.84585 43.7584C8.02103 43.761 7.20497 43.5663 6.45082 43.1869C5.69667 42.8075 5.02133 42.252 4.46876 41.5566C3.9162 40.8612 3.49881 40.0413 3.24376 39.1505C2.98871 38.2598 2.90173 37.3179 2.98847 36.3864C3.07521 35.4549 3.33374 34.5546 3.74721 33.7441C4.16068 32.9336 4.71984 32.2311 5.38826 31.6822C6.05669 31.1334 6.81941 30.7507 7.62675 30.5588C8.43409 30.367 9.26796 30.3704 10.0741 30.5688L7.53231 36.342L7.54553 36.3493C7.43914 36.5771 7.38153 36.8301 7.37739 37.0879C7.37513 37.4632 7.48519 37.8283 7.68955 38.1233C7.8939 38.4182 8.18043 38.6256 8.50217 38.7115C8.82391 38.7973 9.16178 38.7565 9.46042 38.5957C9.75906 38.4349 10.0007 38.1637 10.1459 37.8265L10.1594 37.8338L12.6906 32.085C13.5961 32.9719 14.2405 34.1526 14.537 35.4682C14.8335 36.7837 14.7679 38.1708 14.349 39.4427C13.9301 40.7146 13.178 41.8101 12.1941 42.5818C11.2101 43.3534 10.0416 43.7641 8.84585 43.7584ZM17.5244 35.4203C17.14 32.854 15.8898 30.559 14.0394 29.0226L16.5045 23.4237L20.0252 35.4203H17.5244ZM22.6019 33.6526L19.2044 22.0792H30.7544L22.6019 33.6526ZM38.215 43.7584C36.893 43.7628 35.6085 43.2591 34.5705 42.3292C33.5326 41.3992 32.8022 40.0978 32.4983 38.6367C32.1943 37.1755 32.3347 35.6405 32.8965 34.2814C33.4583 32.9223 34.4085 31.8191 35.5925 31.1511L36.7789 37.4381L36.8083 37.4308C36.8729 37.8016 37.0481 38.1358 37.3043 38.3771C37.5606 38.6184 37.8822 38.752 38.215 38.7555C38.6045 38.7555 38.978 38.5798 39.2534 38.2671C39.5288 37.9544 39.6835 37.5302 39.6835 37.0879C39.6744 36.9714 39.654 36.8564 39.6226 36.745L39.6519 36.7377L38.4645 30.4459C39.9988 30.5167 41.4474 31.2681 42.499 32.5387C43.5507 33.8093 44.1215 35.4977 44.0888 37.2411C44.0562 38.9845 43.4226 40.6438 42.3243 41.8624C41.226 43.0811 39.7506 43.7618 38.215 43.7584Z" fill="black"/>
</svg>
