<svg width="333" height="38" viewBox="0 0 333 38" fill="none" xmlns="http://www.w3.org/2000/svg">
<rect x="0.5" y="0.5" width="332" height="37" rx="18.5" fill="white" stroke="black"/>
<rect x="1" y="1" width="162" height="36" rx="18" fill="url(#paint0_linear_198_3)"/>
<path d="M105.592 26V24.7216L110.393 19.4659C110.956 18.8504 111.42 18.3153 111.785 17.8608C112.149 17.4015 112.419 16.9706 112.594 16.5682C112.774 16.161 112.864 15.7348 112.864 15.2898C112.864 14.7784 112.741 14.3357 112.495 13.9616C112.254 13.5876 111.922 13.2988 111.501 13.0952C111.079 12.8916 110.606 12.7898 110.08 12.7898C109.522 12.7898 109.034 12.9058 108.617 13.1378C108.205 13.3651 107.886 13.6847 107.658 14.0966C107.436 14.5085 107.325 14.9915 107.325 15.5455H105.648C105.648 14.6932 105.845 13.9451 106.238 13.3011C106.631 12.6572 107.166 12.1553 107.843 11.7955C108.525 11.4356 109.29 11.2557 110.137 11.2557C110.989 11.2557 111.745 11.4356 112.403 11.7955C113.061 12.1553 113.577 12.6406 113.951 13.2514C114.325 13.8622 114.512 14.5417 114.512 15.2898C114.512 15.8248 114.415 16.348 114.221 16.8594C114.031 17.366 113.7 17.9318 113.227 18.5568C112.758 19.1771 112.107 19.9347 111.273 20.8295L108.006 24.3239V24.4375H114.768V26H105.592ZM117.048 23.017V21.5682L123.44 11.4545H124.491V13.6989H123.781L118.951 21.3409V21.4545H127.559V23.017H117.048ZM123.894 26V22.5767V21.902V11.4545H125.57V26H123.894ZM134.965 26.1989C133.895 26.1989 132.983 25.9077 132.23 25.3253C131.478 24.7382 130.902 23.8883 130.505 22.7756C130.107 21.6581 129.908 20.3087 129.908 18.7273C129.908 17.1553 130.107 15.813 130.505 14.7003C130.907 13.5829 131.485 12.7306 132.238 12.1435C132.995 11.5516 133.904 11.2557 134.965 11.2557C136.025 11.2557 136.932 11.5516 137.685 12.1435C138.443 12.7306 139.02 13.5829 139.418 14.7003C139.82 15.813 140.022 17.1553 140.022 18.7273C140.022 20.3087 139.823 21.6581 139.425 22.7756C139.027 23.8883 138.452 24.7382 137.699 25.3253C136.946 25.9077 136.035 26.1989 134.965 26.1989ZM134.965 24.6364C136.025 24.6364 136.849 24.125 137.436 23.1023C138.024 22.0795 138.317 20.6212 138.317 18.7273C138.317 17.4678 138.182 16.3954 137.912 15.5099C137.647 14.6245 137.264 13.9498 136.762 13.4858C136.265 13.0218 135.666 12.7898 134.965 12.7898C133.914 12.7898 133.092 13.3082 132.5 14.3452C131.908 15.3774 131.613 16.8381 131.613 18.7273C131.613 19.9867 131.745 21.0568 132.01 21.9375C132.275 22.8182 132.657 23.4882 133.154 23.9474C133.656 24.4067 134.259 24.6364 134.965 24.6364ZM153.516 10.7727L148.828 28.1875H147.294L151.982 10.7727H153.516ZM165.645 26.1989C164.812 26.1989 164.061 26.0331 163.393 25.7017C162.726 25.3703 162.191 24.9157 161.788 24.3381C161.386 23.7604 161.166 23.1023 161.128 22.3636H162.832C162.899 23.0218 163.197 23.5663 163.727 23.9972C164.262 24.4233 164.902 24.6364 165.645 24.6364C166.241 24.6364 166.772 24.4967 167.236 24.2173C167.705 23.938 168.071 23.5545 168.337 23.0668C168.607 22.5743 168.741 22.018 168.741 21.3977C168.741 20.7633 168.602 20.1974 168.322 19.7003C168.048 19.1984 167.669 18.803 167.186 18.5142C166.703 18.2254 166.152 18.0786 165.531 18.0739C165.086 18.0691 164.629 18.1378 164.161 18.2798C163.692 18.4171 163.306 18.5947 163.003 18.8125L161.355 18.6136L162.236 11.4545H169.793V13.017H163.713L163.202 17.3068H163.287C163.585 17.0701 163.959 16.8736 164.409 16.7173C164.859 16.5611 165.328 16.483 165.815 16.483C166.705 16.483 167.499 16.696 168.195 17.1222C168.895 17.5436 169.445 18.1212 169.842 18.8551C170.245 19.589 170.446 20.4271 170.446 21.3693C170.446 22.2973 170.238 23.1259 169.821 23.8551C169.409 24.5795 168.841 25.1525 168.116 25.5739C167.392 25.9905 166.568 26.1989 165.645 26.1989ZM178.012 26.1989C176.942 26.1989 176.03 25.9077 175.277 25.3253C174.525 24.7382 173.949 23.8883 173.551 22.7756C173.154 21.6581 172.955 20.3087 172.955 18.7273C172.955 17.1553 173.154 15.813 173.551 14.7003C173.954 13.5829 174.532 12.7306 175.284 12.1435C176.042 11.5516 176.951 11.2557 178.012 11.2557C179.072 11.2557 179.979 11.5516 180.732 12.1435C181.489 12.7306 182.067 13.5829 182.465 14.7003C182.867 15.813 183.069 17.1553 183.069 18.7273C183.069 20.3087 182.87 21.6581 182.472 22.7756C182.074 23.8883 181.499 24.7382 180.746 25.3253C179.993 25.9077 179.082 26.1989 178.012 26.1989ZM178.012 24.6364C179.072 24.6364 179.896 24.125 180.483 23.1023C181.07 22.0795 181.364 20.6212 181.364 18.7273C181.364 17.4678 181.229 16.3954 180.959 15.5099C180.694 14.6245 180.31 13.9498 179.809 13.4858C179.311 13.0218 178.712 12.7898 178.012 12.7898C176.961 12.7898 176.139 13.3082 175.547 14.3452C174.955 15.3774 174.659 16.8381 174.659 18.7273C174.659 19.9867 174.792 21.0568 175.057 21.9375C175.322 22.8182 175.703 23.4882 176.201 23.9474C176.703 24.4067 177.306 24.6364 178.012 24.6364ZM190.512 26.1989C189.442 26.1989 188.53 25.9077 187.777 25.3253C187.025 24.7382 186.449 23.8883 186.051 22.7756C185.654 21.6581 185.455 20.3087 185.455 18.7273C185.455 17.1553 185.654 15.813 186.051 14.7003C186.454 13.5829 187.032 12.7306 187.784 12.1435C188.542 11.5516 189.451 11.2557 190.512 11.2557C191.572 11.2557 192.479 11.5516 193.232 12.1435C193.989 12.7306 194.567 13.5829 194.965 14.7003C195.367 15.813 195.569 17.1553 195.569 18.7273C195.569 20.3087 195.37 21.6581 194.972 22.7756C194.574 23.8883 193.999 24.7382 193.246 25.3253C192.493 25.9077 191.582 26.1989 190.512 26.1989ZM190.512 24.6364C191.572 24.6364 192.396 24.125 192.983 23.1023C193.57 22.0795 193.864 20.6212 193.864 18.7273C193.864 17.4678 193.729 16.3954 193.459 15.5099C193.194 14.6245 192.81 13.9498 192.309 13.4858C191.811 13.0218 191.212 12.7898 190.512 12.7898C189.461 12.7898 188.639 13.3082 188.047 14.3452C187.455 15.3774 187.159 16.8381 187.159 18.7273C187.159 19.9867 187.292 21.0568 187.557 21.9375C187.822 22.8182 188.203 23.4882 188.701 23.9474C189.203 24.4067 189.806 24.6364 190.512 24.6364ZM205 11.4545L208.75 17.5057H208.864L212.614 11.4545H214.688L210.114 18.7273L214.688 26H212.614L208.864 20.0625H208.75L205 26H202.926L207.614 18.7273L202.926 11.4545H205ZM216.98 26V11.4545H221.895C223.036 11.4545 223.969 11.6605 224.693 12.0724C225.422 12.4796 225.962 13.0312 226.312 13.7273C226.663 14.4233 226.838 15.1998 226.838 16.0568C226.838 16.9138 226.663 17.6927 226.312 18.3935C225.967 19.0942 225.432 19.6529 224.707 20.0696C223.983 20.4815 223.055 20.6875 221.923 20.6875H218.401V19.125H221.866C222.648 19.125 223.275 18.9901 223.749 18.7202C224.222 18.4503 224.565 18.0857 224.778 17.6264C224.996 17.1624 225.105 16.6392 225.105 16.0568C225.105 15.4744 224.996 14.9536 224.778 14.4943C224.565 14.035 224.22 13.6752 223.741 13.4148C223.263 13.1496 222.629 13.017 221.838 13.017H218.741V26H216.98Z" fill="black"/>
<defs>
<linearGradient id="paint0_linear_198_3" x1="1" y1="1" x2="16.2471" y2="69.6118" gradientUnits="userSpaceOnUse">
<stop stop-color="#FFB670"/>
<stop offset="1" stop-color="#EB7206"/>
</linearGradient>
</defs>
</svg>
