<svg width="30" height="30" viewBox="0 0 30 30" fill="none" xmlns="http://www.w3.org/2000/svg">
<circle cx="15" cy="15" r="15" fill="url(#paint0_linear_203_5)"/>
<path d="M23.2071 24.7015H25.1613L22.5063 21.4988C22.8692 21.0176 23.0761 20.4635 23.0761 19.8327V17.2997V16.7365V11.1817C23.0761 8.26195 20.2701 6.6448 17.1176 6.15424L17.6616 4.80441C18.072 4.95231 18.3638 5.31302 18.3638 5.73623H19.3164C19.3164 4.70755 18.3903 3.87085 17.2522 3.87085H12.7482C11.6098 3.87085 10.684 4.70755 10.684 5.73589H11.6366C11.6366 5.31302 11.9288 4.95196 12.3392 4.80406L12.8829 6.15389C9.73032 6.64445 6.92399 8.2616 6.92399 11.1814L6.92435 16.7362L6.92399 19.8327C6.92399 20.4632 7.13084 21.0176 7.49411 21.4988L4.83875 24.7015H6.79334L8.44528 22.3851C8.77443 22.6115 9.14786 22.8122 9.55358 22.9885L8.37451 24.7015H21.6259L20.4472 22.9885C20.8533 22.8118 21.226 22.6111 21.5552 22.3851L23.2071 24.7015ZM17.0991 4.7315L16.5562 6.0789C16.039 6.02092 15.5175 5.99141 15 5.99141C14.4833 5.99141 13.961 6.02092 13.4443 6.07925L12.9014 4.73185L17.0991 4.7315ZM15 6.68576C18.5405 6.68576 22.3503 8.09253 22.3503 11.1817V16.6053H21.7947V10.4933C21.7947 9.95201 8.20612 9.95201 8.20612 10.4933V16.6053H7.65052L7.65016 11.1817C7.64979 8.09253 11.4603 6.68576 15 6.68576ZM7.64979 17.4309H22.3503V19.833C22.3503 22.0938 18.653 23.2763 15 23.2763C11.3478 23.2763 7.64979 22.0938 7.64979 19.833V17.4309Z" fill="black"/>
<path d="M9.06661 20.659H11.1733C11.6566 20.659 12.0479 20.3382 12.0479 19.9428C12.0479 19.5474 11.6566 19.2266 11.1733 19.2266H9.06661C8.58358 19.2266 8.19128 19.5474 8.19128 19.9428C8.19128 20.3382 8.58358 20.659 9.06661 20.659ZM10.5142 19.4269H11.0662C11.4153 19.4269 11.6973 19.6581 11.6973 19.9431C11.6973 20.2282 11.4153 20.4594 11.0662 20.4594H10.5142C10.1662 20.4594 9.88314 20.2282 9.88314 19.9431C9.88314 19.6581 10.1662 19.4269 10.5142 19.4269Z" fill="black"/>
<path d="M18.8276 20.659H20.9339C21.4169 20.659 21.8088 20.3382 21.8088 19.9428C21.8088 19.5474 21.4169 19.2266 20.9339 19.2266H18.8276C18.3435 19.2266 17.9523 19.5474 17.9523 19.9428C17.9523 20.3382 18.3435 20.659 18.8276 20.659ZM18.9339 19.4269H19.4866C19.8354 19.4269 20.1174 19.6581 20.1174 19.9431C20.1174 20.2282 19.8354 20.4594 19.4866 20.4594H18.9339C18.5859 20.4594 18.3032 20.2282 18.3032 19.9431C18.3032 19.6581 18.5859 19.4269 18.9339 19.4269Z" fill="black"/>
<defs>
<linearGradient id="paint0_linear_203_5" x1="0" y1="0" x2="30" y2="30" gradientUnits="userSpaceOnUse">
<stop stop-color="#FFB670"/>
<stop offset="1" stop-color="#EB7206"/>
</linearGradient>
</defs>
</svg>
