<svg width="30" height="30" viewBox="0 0 30 30" fill="none" xmlns="http://www.w3.org/2000/svg">
<circle cx="15" cy="15" r="15" fill="url(#paint0_linear_203_7)"/>
<path d="M5.81993 24.1315C5.71302 24.2578 5.62981 24.3841 5.62981 24.5263C5.62981 24.7868 5.89126 25 6.37847 25C6.66367 25 6.90137 24.921 7.09149 24.7158L7.50742 24.2657H22.4926L22.8966 24.7158C23.0986 24.921 23.3244 25 23.6096 25C24.1087 25 24.3583 24.7868 24.3583 24.5263C24.3583 24.3841 24.2751 24.2578 24.1681 24.1315L20.8645 20.6731C21.2923 20.6494 21.7201 20.6179 22.136 20.5784C23.6809 20.452 24.5366 19.7098 24.6554 18.6518C24.8693 16.7647 25 14.9013 25 12.951C25 10.9929 24.8693 9.11368 24.6554 7.2345C24.5366 6.16857 23.6809 5.43425 22.136 5.30004C19.795 5.09475 17.3827 5 15.0415 5C12.6649 5 10.2168 5.10264 7.85202 5.30004C6.31907 5.42636 5.45152 6.16857 5.33272 7.2345C5.11879 9.11368 5 10.9929 5 12.951C5 14.9013 5.11879 16.7647 5.33272 18.6518C5.45152 19.7098 6.31907 20.4441 7.85202 20.5784C8.27983 20.6179 8.69576 20.6494 9.12358 20.681L5.81993 24.1315ZM9.42066 8.81368C8.68388 8.81368 8.18475 8.48204 8.18475 7.9925C8.18475 7.49507 8.68388 7.16343 9.42066 7.16343H20.5912C21.328 7.16343 21.839 7.49507 21.839 7.9925C21.839 8.48204 21.328 8.81368 20.5912 8.81368H9.42066ZM15.006 15.0987C12.9263 15.0987 10.6209 14.9961 8.82649 14.8618C8.31547 14.8224 7.98275 14.5934 7.93523 14.2775C7.88766 13.867 7.85202 13.2511 7.85202 12.651C7.85202 12.0351 7.88766 11.4272 7.93523 11.0166C7.98275 10.7007 8.31547 10.4718 8.82649 10.4323C10.4783 10.306 12.6173 10.227 15.006 10.227C17.3945 10.227 19.5336 10.306 21.1973 10.4323C21.6964 10.4718 22.041 10.7007 22.0766 11.0166C22.136 11.4272 22.1599 12.0351 22.1599 12.651C22.1599 13.2511 22.136 13.867 22.0766 14.2775C22.041 14.5934 21.6964 14.8224 21.1973 14.8618C19.4623 15.0039 17.2282 15.0987 15.006 15.0987ZM10.6685 18.865C9.58702 18.865 8.76704 18.3202 8.76704 17.6017C8.76704 16.891 9.58702 16.3384 10.6685 16.3384C11.738 16.3384 12.5698 16.891 12.5698 17.6017C12.5698 18.3202 11.738 18.865 10.6685 18.865ZM19.3909 18.865C18.3096 18.865 17.4896 18.3202 17.4896 17.6017C17.4896 16.891 18.3096 16.3384 19.3909 16.3384C20.4605 16.3384 21.2923 16.891 21.2923 17.6017C21.2923 18.3202 20.4605 18.865 19.3909 18.865ZM14.8277 20.8784C16.2775 20.8784 17.751 20.8468 19.2127 20.7758L20.0564 21.668H9.93163L10.7635 20.7836C12.1182 20.8468 13.4848 20.8784 14.8277 20.8784ZM8.31547 23.3971L9.12358 22.5365H20.8645L21.6726 23.3971H8.31547Z" fill="black"/>
<defs>
<linearGradient id="paint0_linear_203_7" x1="0" y1="0" x2="30" y2="30" gradientUnits="userSpaceOnUse">
<stop stop-color="#FFB670"/>
<stop offset="1" stop-color="#EB7206"/>
</linearGradient>
</defs>
</svg>
