<svg width="32" height="32" viewBox="0 0 32 32" fill="none" xmlns="http://www.w3.org/2000/svg">
<path d="M28.0001 13.5464C28.0001 6.61722 22.6276 1 16.0001 1C9.3727 1 4.00012 6.61722 4.00012 13.5464" stroke="black" stroke-linecap="round" stroke-linejoin="round"/>
<path d="M1 20.507V17.5637C1 16.1243 1.93688 14.8698 3.27239 14.5207L5.88171 13.8386C6.44975 13.6901 6.99999 14.1393 6.99999 14.7515V23.3192C6.99999 23.9314 6.44975 24.3806 5.88171 24.2321L3.27239 23.55C1.93688 23.2009 1 21.9464 1 20.507Z" stroke="black"/>
<path d="M31 20.507V17.5637C31 16.1243 30.0631 14.8698 28.7276 14.5207L26.1182 13.8386C25.5502 13.6901 25 14.1393 25 14.7515V23.3192C25 23.9314 25.5502 24.3806 26.1182 24.2321L28.7276 23.55C30.0631 23.2009 31 21.9464 31 20.507Z" stroke="black"/>
<path d="M28 24.5247V25.3088C28 27.0412 26.6569 28.4454 25 28.4454H19.75" stroke="black"/>
<path d="M18.25 30.7977H13.75C12.5074 30.7977 11.5 29.7444 11.5 28.4452C11.5 27.146 12.5074 26.0928 13.75 26.0928H18.25C19.4926 26.0928 20.5 27.146 20.5 28.4452C20.5 29.7444 19.4926 30.7977 18.25 30.7977Z" stroke="black"/>
</svg>
