<svg width="57" height="57" viewBox="0 0 57 57" fill="none" xmlns="http://www.w3.org/2000/svg">
<g clip-path="url(#clip0_99_34)">
<path d="M57 36.6406L53.104 34.3213V36.9701L57 37.9505V36.6406Z" fill="#A50E0E"/>
<path d="M0 36.6406L3.89634 34.3213V36.9701L0 37.9505V36.6406Z" fill="#A50E0E"/>
<path d="M3.89636 14.25V42.75L28.5002 57L53.104 42.75V14.25L28.5002 0L3.89636 14.25Z" fill="#ECB20C"/>
<path d="M19.5673 23.58L28.5002 6.14603V0L3.89636 14.25L19.5673 23.58Z" fill="url(#paint0_linear_99_34)"/>
<path d="M40.1399 34.3213L28.5001 50.8539V56.9999L53.1039 42.7499L47.7978 39.6767L40.1399 34.3213Z" fill="url(#paint1_linear_99_34)"/>
<path d="M28.0748 43.555L9.20215 39.6768L3.89636 42.7499L28.5002 56.9999V50.8539L28.0748 43.555Z" fill="url(#paint2_linear_99_34)"/>
<path d="M28.9205 13.7042L47.7978 17.3232L53.1039 14.25L28.5001 0V6.14603L28.9205 13.7042Z" fill="url(#paint3_linear_99_34)"/>
<path d="M20.4178 33.5676L9.99871 17.825L3.89636 14.25V42.75L9.20215 39.6768L20.4178 33.5676Z" fill="url(#paint4_linear_99_34)"/>
<path d="M36.5823 33.5676L47.0013 17.825L53.104 14.25V42.75L47.7979 39.6768L36.5823 33.5676Z" fill="url(#paint5_linear_99_34)"/>
<path d="M9.20215 17.3231V39.6768L28.5002 50.8539L47.7979 39.6768V17.3231L28.5002 6.146L9.20215 17.3231Z" fill="url(#paint6_linear_99_34)"/>
<path d="M18.4573 44.3235H2.45091C1.09733 44.3235 0 43.3326 0 42.1102V36.4797H15.8079C17.271 36.4797 18.4573 37.5508 18.4573 38.8723V44.3235V44.3235Z" fill="url(#paint7_linear_99_34)"/>
<path d="M54.5491 44.8137H38.5427V39.3625C38.5427 38.0413 39.7287 36.97 41.1921 36.97H57V42.6004C57 43.8228 55.9027 44.8137 54.5491 44.8137Z" fill="url(#paint8_linear_99_34)"/>
<path d="M43.4537 48.7357H13.5463C12.8106 48.7357 12.2145 48.197 12.2145 47.533V39.1534C12.2145 38.489 12.811 37.9507 13.5463 37.9507H43.454C44.1897 37.9507 44.7858 38.4893 44.7858 39.1534V47.533C44.7858 48.1973 44.1893 48.7357 43.4537 48.7357Z" fill="url(#paint9_linear_99_34)"/>
<path d="M28.5001 51.1868C33.2972 51.1868 37.186 47.675 37.186 43.343C37.186 39.011 33.2972 35.4993 28.5001 35.4993C23.7031 35.4993 19.8143 39.011 19.8143 43.343C19.8143 47.675 23.7031 51.1868 28.5001 51.1868Z" fill="#F6F6F8"/>
<path d="M28.5002 49.7013C32.3888 49.7013 35.5411 46.8546 35.5411 43.343C35.5411 39.8313 32.3888 36.9846 28.5002 36.9846C24.6116 36.9846 21.4592 39.8313 21.4592 43.343C21.4592 46.8546 24.6116 49.7013 28.5002 49.7013Z" fill="url(#paint10_linear_99_34)"/>
<path d="M28.5002 38.5938L30.2088 41.7205L34.0301 42.2218L31.2651 44.6557L31.9178 48.0922L28.5002 46.4697L25.0823 48.0922L25.7353 44.6557L22.9703 42.2218L26.7913 41.7205L28.5002 38.5938Z" fill="#FFB05A"/>
<path d="M28.5002 38.5938L28.7224 43.2424L30.2088 41.7205L32.1195 41.971L34.0301 42.2218L28.7224 43.2424L31.2651 44.6557L31.5915 46.374L31.9178 48.0922L28.7224 43.2424L28.5002 46.4697L26.7913 47.2811L25.0823 48.0922L28.7224 43.2424L25.7353 44.6557L24.3526 43.4387L22.9703 42.2218L28.7224 43.2424L26.7913 41.7205L27.6456 40.157L28.5002 38.5938Z" fill="#D17A21"/>
<path d="M14.5107 17.4002L14.9762 15.7184C15.0359 15.5027 15.1596 15.3054 15.3338 15.1481C15.508 14.9908 15.7264 14.8791 15.9653 14.8252L17.8276 14.4048C17.8778 14.3934 17.8778 14.329 17.8276 14.3179L15.9653 13.8975C15.7264 13.8437 15.508 13.732 15.3338 13.5746C15.1596 13.4173 15.0359 13.2201 14.9762 13.0043L14.5107 11.3226C14.4981 11.2772 14.4268 11.2772 14.4145 11.3226L13.949 13.0043C13.8893 13.2201 13.7656 13.4173 13.5914 13.5746C13.4172 13.732 13.1988 13.8437 12.9599 13.8975L11.0976 14.3179C11.0474 14.3293 11.0474 14.3937 11.0976 14.4048L12.9599 14.8252C13.1988 14.8791 13.4172 14.9908 13.5914 15.1481C13.7656 15.3054 13.8893 15.5027 13.949 15.7184L14.4145 17.4002C14.4271 17.4455 14.4984 17.4455 14.5107 17.4002Z" fill="white"/>
<path d="M47.678 35.847L48.027 34.5856C48.0719 34.4237 48.1646 34.2758 48.2953 34.1578C48.426 34.0398 48.5898 33.9561 48.769 33.9156L50.1658 33.6001C50.2034 33.5915 50.2034 33.5434 50.1658 33.5348L48.769 33.2193C48.5898 33.1789 48.426 33.0951 48.2953 32.9771C48.1646 32.8591 48.0719 32.7112 48.027 32.5493L47.678 31.2879C47.6685 31.254 47.6152 31.254 47.6057 31.2879L47.2567 32.5493C47.2119 32.7112 47.1191 32.8591 46.9884 32.9771C46.8578 33.0951 46.694 33.1789 46.5147 33.2193L45.1179 33.5348C45.0803 33.5434 45.0803 33.5915 45.1179 33.6001L46.5147 33.9156C46.694 33.9561 46.8578 34.0398 46.9884 34.1578C47.1191 34.2758 47.2119 34.4237 47.2567 34.5856L47.6057 35.847C47.6152 35.8809 47.6685 35.8809 47.678 35.847Z" fill="white"/>
<path d="M22.5762 30.135L24.4091 27.8732C25.414 28.7411 26.577 29.3265 27.8731 29.3265C29.4167 29.3265 30.4216 28.7414 30.4216 27.6119C30.4216 26.32 29.6626 25.5522 26.1749 25.5522V23.0291C29.0143 23.0291 29.9081 22.2416 29.9081 21.0501C29.9081 20.0212 29.2384 19.4555 28.0079 19.4555C26.8904 19.4555 26.0401 19.9189 25.0356 20.7063L23.0224 18.507C24.566 17.3351 26.2207 16.6497 28.1862 16.6497C31.63 16.6497 33.8871 18.1029 33.8871 20.787C33.8871 22.2813 32.9933 23.4532 31.2042 24.0993V24.1996C33.0609 24.7043 34.4243 25.9156 34.4243 27.8536C34.4243 30.6594 31.5848 32.234 28.2755 32.234C25.6378 32.234 23.783 31.4055 22.5762 30.135Z" fill="#D56E1F"/>
</g>
<defs>
<linearGradient id="paint0_linear_99_34" x1="16.1722" y1="7.0961" x2="19.2784" y2="11.3437" gradientUnits="userSpaceOnUse">
<stop stop-color="#EFEDB3"/>
<stop offset="1" stop-color="#F8AB30"/>
</linearGradient>
<linearGradient id="paint1_linear_99_34" x1="40.4146" y1="49.3935" x2="38.1287" y2="45.5063" gradientUnits="userSpaceOnUse">
<stop stop-color="#F8AB30"/>
<stop offset="1" stop-color="#EFEDB3"/>
</linearGradient>
<linearGradient id="paint2_linear_99_34" x1="15.7175" y1="50.436" x2="20.9364" y2="42.9654" gradientUnits="userSpaceOnUse">
<stop stop-color="#E1783A"/>
<stop offset="1" stop-color="#EB9130"/>
</linearGradient>
<linearGradient id="paint3_linear_99_34" x1="41.0426" y1="6.901" x2="37.1037" y2="11.5573" gradientUnits="userSpaceOnUse">
<stop stop-color="#E1783A"/>
<stop offset="1" stop-color="#EB9130"/>
</linearGradient>
<linearGradient id="paint4_linear_99_34" x1="3.89624" y1="28.5" x2="10.0677" y2="28.5" gradientUnits="userSpaceOnUse">
<stop stop-color="#E46F26"/>
<stop offset="1" stop-color="#FFA835"/>
</linearGradient>
<linearGradient id="paint5_linear_99_34" x1="53.104" y1="28.5" x2="47.026" y2="28.5" gradientUnits="userSpaceOnUse">
<stop stop-color="#E46F26"/>
<stop offset="1" stop-color="#FFA835"/>
</linearGradient>
<linearGradient id="paint6_linear_99_34" x1="28.5" y1="50.8539" x2="28.5" y2="6.14608" gradientUnits="userSpaceOnUse">
<stop stop-color="#ED9448"/>
<stop offset="1" stop-color="#F5CC75"/>
</linearGradient>
<linearGradient id="paint7_linear_99_34" x1="0" y1="40.4017" x2="18.4572" y2="40.4017" gradientUnits="userSpaceOnUse">
<stop stop-color="#BE4244"/>
<stop offset="1" stop-color="#D33730"/>
</linearGradient>
<linearGradient id="paint8_linear_99_34" x1="38.5429" y1="40.892" x2="57.0001" y2="40.892" gradientUnits="userSpaceOnUse">
<stop stop-color="#BE4244"/>
<stop offset="1" stop-color="#D33730"/>
</linearGradient>
<linearGradient id="paint9_linear_99_34" x1="28.5" y1="48.7357" x2="28.5" y2="37.9506" gradientUnits="userSpaceOnUse">
<stop stop-color="#FF544A"/>
<stop offset="1" stop-color="#F7726E"/>
</linearGradient>
<linearGradient id="paint10_linear_99_34" x1="28.5" y1="49.7013" x2="28.5" y2="36.9846" gradientUnits="userSpaceOnUse">
<stop stop-color="#ED9448"/>
<stop offset="1" stop-color="#F5CC75"/>
</linearGradient>
<clipPath id="clip0_99_34">
<rect width="57" height="57" fill="white"/>
</clipPath>
</defs>
</svg>
