<svg width="293" height="16" viewBox="0 0 293 16" fill="none" xmlns="http://www.w3.org/2000/svg">
<rect x="0.5" y="0.5" width="292" height="15" rx="7.5" fill="white" stroke="black"/>
<path d="M113.673 4.27273V13H112.616V5.38068H112.565L110.434 6.79545V5.72159L112.616 4.27273H113.673ZM119.029 13.1193C118.387 13.1193 117.84 12.9446 117.389 12.5952C116.937 12.2429 116.592 11.733 116.353 11.0653C116.115 10.3949 115.995 9.58523 115.995 8.63636C115.995 7.69318 116.115 6.88778 116.353 6.22017C116.595 5.54972 116.941 5.03835 117.393 4.68608C117.847 4.33097 118.393 4.15341 119.029 4.15341C119.666 4.15341 120.21 4.33097 120.661 4.68608C121.116 5.03835 121.463 5.54972 121.701 6.22017C121.943 6.88778 122.063 7.69318 122.063 8.63636C122.063 9.58523 121.944 10.3949 121.705 11.0653C121.467 11.733 121.122 12.2429 120.67 12.5952C120.218 12.9446 119.671 13.1193 119.029 13.1193ZM119.029 12.1818C119.666 12.1818 120.16 11.875 120.512 11.2614C120.865 10.6477 121.041 9.77273 121.041 8.63636C121.041 7.88068 120.96 7.23722 120.798 6.70597C120.639 6.17472 120.409 5.76989 120.107 5.49148C119.809 5.21307 119.45 5.07386 119.029 5.07386C118.399 5.07386 117.906 5.38494 117.551 6.0071C117.195 6.62642 117.018 7.50284 117.018 8.63636C117.018 9.39205 117.097 10.0341 117.257 10.5625C117.416 11.0909 117.644 11.4929 117.943 11.7685C118.244 12.044 118.606 12.1818 119.029 12.1818ZM126.529 13.1193C125.887 13.1193 125.34 12.9446 124.889 12.5952C124.437 12.2429 124.092 11.733 123.853 11.0653C123.615 10.3949 123.495 9.58523 123.495 8.63636C123.495 7.69318 123.615 6.88778 123.853 6.22017C124.095 5.54972 124.441 5.03835 124.893 4.68608C125.347 4.33097 125.893 4.15341 126.529 4.15341C127.166 4.15341 127.71 4.33097 128.161 4.68608C128.616 5.03835 128.963 5.54972 129.201 6.22017C129.443 6.88778 129.563 7.69318 129.563 8.63636C129.563 9.58523 129.444 10.3949 129.205 11.0653C128.967 11.733 128.622 12.2429 128.17 12.5952C127.718 12.9446 127.171 13.1193 126.529 13.1193ZM126.529 12.1818C127.166 12.1818 127.66 11.875 128.012 11.2614C128.365 10.6477 128.541 9.77273 128.541 8.63636C128.541 7.88068 128.46 7.23722 128.298 6.70597C128.139 6.17472 127.909 5.76989 127.607 5.49148C127.309 5.21307 126.95 5.07386 126.529 5.07386C125.899 5.07386 125.406 5.38494 125.051 6.0071C124.695 6.62642 124.518 7.50284 124.518 8.63636C124.518 9.39205 124.597 10.0341 124.757 10.5625C124.916 11.0909 125.144 11.4929 125.443 11.7685C125.744 12.044 126.106 12.1818 126.529 12.1818ZM137.66 3.86364L134.847 14.3125H133.927L136.74 3.86364H137.66ZM144.937 13.1193C144.437 13.1193 143.987 13.0199 143.586 12.821C143.186 12.6222 142.865 12.3494 142.623 12.0028C142.382 11.6562 142.25 11.2614 142.227 10.8182H143.25C143.29 11.2131 143.469 11.5398 143.787 11.7983C144.108 12.054 144.491 12.1818 144.937 12.1818C145.295 12.1818 145.613 12.098 145.892 11.9304C146.173 11.7628 146.393 11.5327 146.552 11.2401C146.714 10.9446 146.795 10.6108 146.795 10.2386C146.795 9.85795 146.711 9.51847 146.544 9.22017C146.379 8.91903 146.152 8.68182 145.862 8.50852C145.572 8.33523 145.241 8.24716 144.869 8.24432C144.602 8.24148 144.328 8.28267 144.047 8.3679C143.765 8.45028 143.534 8.55682 143.352 8.6875L142.363 8.56818L142.892 4.27273H147.426V5.21023H143.778L143.471 7.78409H143.523C143.702 7.64205 143.926 7.52415 144.196 7.4304C144.466 7.33665 144.747 7.28977 145.04 7.28977C145.574 7.28977 146.05 7.41761 146.467 7.6733C146.888 7.92614 147.217 8.27273 147.456 8.71307C147.697 9.15341 147.818 9.65625 147.818 10.2216C147.818 10.7784 147.693 11.2756 147.443 11.7131C147.196 12.1477 146.855 12.4915 146.42 12.7443C145.986 12.9943 145.491 13.1193 144.937 13.1193ZM152.357 13.1193C151.715 13.1193 151.169 12.9446 150.717 12.5952C150.265 12.2429 149.92 11.733 149.681 11.0653C149.443 10.3949 149.323 9.58523 149.323 8.63636C149.323 7.69318 149.443 6.88778 149.681 6.22017C149.923 5.54972 150.269 5.03835 150.721 4.68608C151.176 4.33097 151.721 4.15341 152.357 4.15341C152.994 4.15341 153.538 4.33097 153.99 4.68608C154.444 5.03835 154.791 5.54972 155.029 6.22017C155.271 6.88778 155.392 7.69318 155.392 8.63636C155.392 9.58523 155.272 10.3949 155.034 11.0653C154.795 11.733 154.45 12.2429 153.998 12.5952C153.546 12.9446 152.999 13.1193 152.357 13.1193ZM152.357 12.1818C152.994 12.1818 153.488 11.875 153.84 11.2614C154.193 10.6477 154.369 9.77273 154.369 8.63636C154.369 7.88068 154.288 7.23722 154.126 6.70597C153.967 6.17472 153.737 5.76989 153.436 5.49148C153.137 5.21307 152.778 5.07386 152.357 5.07386C151.727 5.07386 151.234 5.38494 150.879 6.0071C150.524 6.62642 150.346 7.50284 150.346 8.63636C150.346 9.39205 150.426 10.0341 150.585 10.5625C150.744 11.0909 150.972 11.4929 151.271 11.7685C151.572 12.044 151.934 12.1818 152.357 12.1818ZM159.857 13.1193C159.215 13.1193 158.669 12.9446 158.217 12.5952C157.765 12.2429 157.42 11.733 157.181 11.0653C156.943 10.3949 156.823 9.58523 156.823 8.63636C156.823 7.69318 156.943 6.88778 157.181 6.22017C157.423 5.54972 157.769 5.03835 158.221 4.68608C158.676 4.33097 159.221 4.15341 159.857 4.15341C160.494 4.15341 161.038 4.33097 161.49 4.68608C161.944 5.03835 162.291 5.54972 162.529 6.22017C162.771 6.88778 162.892 7.69318 162.892 8.63636C162.892 9.58523 162.772 10.3949 162.534 11.0653C162.295 11.733 161.95 12.2429 161.498 12.5952C161.046 12.9446 160.499 13.1193 159.857 13.1193ZM159.857 12.1818C160.494 12.1818 160.988 11.875 161.34 11.2614C161.693 10.6477 161.869 9.77273 161.869 8.63636C161.869 7.88068 161.788 7.23722 161.626 6.70597C161.467 6.17472 161.237 5.76989 160.936 5.49148C160.637 5.21307 160.278 5.07386 159.857 5.07386C159.227 5.07386 158.734 5.38494 158.379 6.0071C158.024 6.62642 157.846 7.50284 157.846 8.63636C157.846 9.39205 157.926 10.0341 158.085 10.5625C158.244 11.0909 158.472 11.4929 158.771 11.7685C159.072 12.044 159.434 12.1818 159.857 12.1818ZM168.551 4.27273L170.801 7.90341H170.869L173.119 4.27273H174.363L171.619 8.63636L174.363 13H173.119L170.869 9.4375H170.801L168.551 13H167.306L170.119 8.63636L167.306 4.27273H168.551ZM175.738 13V4.27273H178.687C179.372 4.27273 179.932 4.39631 180.366 4.64347C180.804 4.88778 181.128 5.21875 181.338 5.63636C181.548 6.05398 181.653 6.51989 181.653 7.03409C181.653 7.5483 181.548 8.01562 181.338 8.43608C181.131 8.85653 180.809 9.19176 180.375 9.44176C179.94 9.68892 179.383 9.8125 178.704 9.8125H176.591V8.875H178.67C179.139 8.875 179.515 8.79403 179.8 8.6321C180.084 8.47017 180.29 8.25142 180.417 7.97585C180.548 7.69744 180.613 7.38352 180.613 7.03409C180.613 6.68466 180.548 6.37216 180.417 6.09659C180.29 5.82102 180.082 5.60511 179.795 5.44886C179.508 5.28977 179.128 5.21023 178.653 5.21023H176.795V13H175.738Z" fill="black"/>
<rect x="1" y="1" width="94" height="14" rx="7" fill="url(#paint0_linear_236_3)"/>
<defs>
<linearGradient id="paint0_linear_236_3" x1="1" y1="1" x2="5.07972" y2="28.3924" gradientUnits="userSpaceOnUse">
<stop stop-color="#FFB670"/>
<stop offset="1" stop-color="#EB7206"/>
</linearGradient>
</defs>
</svg>
