<svg width="74" height="30" viewBox="0 0 74 30" fill="none" xmlns="http://www.w3.org/2000/svg">
<rect x="0.5" y="0.5" width="29" height="29" rx="14.5" fill="#3A0606" fill-opacity="0.97" stroke="url(#paint0_linear_236_2)"/>
<g filter="url(#filter0_di_236_2)">
<path d="M13.8411 22.7082C13.5051 22.7082 13.1371 22.7002 12.7371 22.6842C12.3531 22.6682 11.9611 22.6442 11.5611 22.6122C11.1771 22.5802 10.7931 22.5402 10.4091 22.4922C10.0251 22.4442 9.67306 22.3802 9.35306 22.3002V6.17221C9.67306 6.09221 10.0251 6.02821 10.4091 5.98021C10.7931 5.93221 11.1771 5.89221 11.5611 5.86021C11.9611 5.82821 12.3531 5.80421 12.7371 5.78821C13.1211 5.77221 13.4811 5.76421 13.8171 5.76421C14.7771 5.76421 15.6731 5.83621 16.5051 5.98021C17.3531 6.12421 18.0811 6.37221 18.6891 6.72421C19.3131 7.06021 19.8011 7.50821 20.1531 8.06821C20.5051 8.62821 20.6811 9.31621 20.6811 10.1322C20.6811 11.0442 20.4651 11.7962 20.0331 12.3882C19.6011 12.9642 19.0251 13.3962 18.3051 13.6842C19.2811 13.9722 20.0571 14.4282 20.6331 15.0522C21.2091 15.6762 21.4971 16.5562 21.4971 17.6922C21.4971 19.3562 20.8811 20.6122 19.6491 21.4602C18.4331 22.2922 16.4971 22.7082 13.8411 22.7082ZM11.6571 14.8122V20.6682C11.8331 20.6842 12.0411 20.7002 12.2811 20.7162C12.4891 20.7322 12.7291 20.7482 13.0011 20.7642C13.2891 20.7642 13.6171 20.7642 13.9851 20.7642C14.6731 20.7642 15.3211 20.7242 15.9291 20.6442C16.5531 20.5482 17.0971 20.3882 17.5611 20.1642C18.0251 19.9402 18.3931 19.6282 18.6651 19.2282C18.9531 18.8282 19.0971 18.3242 19.0971 17.7162C19.0971 17.1722 18.9931 16.7162 18.7851 16.3482C18.5771 15.9642 18.2731 15.6602 17.8731 15.4362C17.4891 15.2122 17.0251 15.0522 16.4811 14.9562C15.9371 14.8602 15.3291 14.8122 14.6571 14.8122H11.6571ZM11.6571 12.9402H14.1051C14.6811 12.9402 15.2251 12.9002 15.7371 12.8202C16.2491 12.7402 16.6891 12.5962 17.0571 12.3882C17.4411 12.1802 17.7371 11.9082 17.9451 11.5722C18.1691 11.2362 18.2811 10.8122 18.2811 10.3002C18.2811 9.82021 18.1691 9.42021 17.9451 9.10021C17.7211 8.76421 17.4091 8.50021 17.0091 8.30821C16.6251 8.10021 16.1691 7.94821 15.6411 7.85221C15.1131 7.75621 14.5531 7.70821 13.9611 7.70821C13.3691 7.70821 12.9051 7.71621 12.5691 7.73221C12.2331 7.74821 11.9291 7.77221 11.6571 7.80421V12.9402Z" fill="url(#paint1_linear_236_2)"/>
</g>
<path d="M42.2955 9.36364V21H40.8864V10.8409H40.8182L37.9773 12.7273V11.2955L40.8864 9.36364H42.2955ZM49.2784 21.1591C48.6117 21.1591 48.0114 21.0265 47.4773 20.7614C46.9432 20.4962 46.5152 20.1326 46.1932 19.6705C45.8712 19.2083 45.6951 18.6818 45.6648 18.0909H47.0284C47.0814 18.6174 47.3201 19.053 47.7443 19.3977C48.1723 19.7386 48.6837 19.9091 49.2784 19.9091C49.7557 19.9091 50.1799 19.7973 50.5511 19.5739C50.9261 19.3504 51.2197 19.0436 51.4318 18.6534C51.6477 18.2595 51.7557 17.8144 51.7557 17.3182C51.7557 16.8106 51.6439 16.358 51.4205 15.9602C51.2008 15.5587 50.8977 15.2424 50.5114 15.0114C50.125 14.7803 49.6837 14.6629 49.1875 14.6591C48.8314 14.6553 48.4659 14.7102 48.0909 14.8239C47.7159 14.9337 47.4072 15.0758 47.1648 15.25L45.8466 15.0909L46.5511 9.36364H52.5966V10.6136H47.733L47.3239 14.0455H47.392C47.6307 13.8561 47.9299 13.6989 48.2898 13.5739C48.6496 13.4489 49.0246 13.3864 49.4148 13.3864C50.1269 13.3864 50.7614 13.5568 51.3182 13.8977C51.8788 14.2348 52.3182 14.697 52.6364 15.2841C52.9583 15.8712 53.1193 16.5417 53.1193 17.2955C53.1193 18.0379 52.9527 18.7008 52.6193 19.2841C52.2898 19.8636 51.8352 20.322 51.2557 20.6591C50.6761 20.9924 50.017 21.1591 49.2784 21.1591ZM59.2401 21.1591C58.7628 21.1515 58.2855 21.0606 57.8082 20.8864C57.331 20.7121 56.8954 20.4186 56.5014 20.0057C56.1075 19.589 55.7912 19.0265 55.5526 18.3182C55.3139 17.6061 55.1946 16.7121 55.1946 15.6364C55.1946 14.6061 55.2912 13.6932 55.4844 12.8977C55.6776 12.0985 55.9579 11.4261 56.3253 10.8807C56.6927 10.3314 57.1359 9.91477 57.6548 9.63068C58.1776 9.34659 58.7666 9.20455 59.4219 9.20455C60.0734 9.20455 60.6529 9.33523 61.1605 9.59659C61.6719 9.85417 62.0885 10.214 62.4105 10.6761C62.7325 11.1383 62.9408 11.6705 63.0355 12.2727H61.6491C61.5204 11.75 61.2704 11.3163 60.8991 10.9716C60.5279 10.6269 60.0355 10.4545 59.4219 10.4545C58.5204 10.4545 57.8101 10.8466 57.2912 11.6307C56.776 12.4148 56.5166 13.5152 56.5128 14.9318H56.6037C56.8158 14.6098 57.0677 14.3352 57.3594 14.108C57.6548 13.8769 57.9806 13.6989 58.3366 13.5739C58.6927 13.4489 59.0696 13.3864 59.4673 13.3864C60.134 13.3864 60.7438 13.553 61.2969 13.8864C61.8499 14.2159 62.2931 14.6723 62.6264 15.2557C62.9598 15.8352 63.1264 16.5 63.1264 17.25C63.1264 17.9697 62.9654 18.6288 62.6435 19.2273C62.3215 19.822 61.8688 20.2955 61.2855 20.6477C60.706 20.9962 60.0241 21.1667 59.2401 21.1591ZM59.2401 19.9091C59.7173 19.9091 60.1454 19.7898 60.5241 19.5511C60.9067 19.3125 61.2079 18.9924 61.4276 18.5909C61.651 18.1894 61.7628 17.7424 61.7628 17.25C61.7628 16.7689 61.6548 16.3314 61.4389 15.9375C61.2268 15.5398 60.9332 15.2235 60.5582 14.9886C60.187 14.7538 59.7628 14.6364 59.2855 14.6364C58.9257 14.6364 58.5904 14.7083 58.2798 14.8523C57.9692 14.9924 57.6965 15.1856 57.4616 15.4318C57.2306 15.678 57.0488 15.9602 56.9162 16.2784C56.7836 16.5928 56.7173 16.9242 56.7173 17.2727C56.7173 17.7348 56.8253 18.1667 57.0412 18.5682C57.2609 18.9697 57.5601 19.2936 57.9389 19.5398C58.3215 19.786 58.7552 19.9091 59.2401 19.9091ZM69.1562 21.1591C68.3002 21.1591 67.571 20.9261 66.9688 20.4602C66.3665 19.9905 65.9063 19.3106 65.5881 18.4205C65.2699 17.5265 65.1108 16.447 65.1108 15.1818C65.1108 13.9242 65.2699 12.8504 65.5881 11.9602C65.91 11.0663 66.3722 10.3845 66.9744 9.91477C67.5805 9.44129 68.3078 9.20455 69.1562 9.20455C70.0047 9.20455 70.7301 9.44129 71.3324 9.91477C71.9384 10.3845 72.4006 11.0663 72.7188 11.9602C73.0407 12.8504 73.2017 13.9242 73.2017 15.1818C73.2017 16.447 73.0426 17.5265 72.7244 18.4205C72.4062 19.3106 71.946 19.9905 71.3438 20.4602C70.7415 20.9261 70.0123 21.1591 69.1562 21.1591ZM69.1562 19.9091C70.0047 19.9091 70.6638 19.5 71.1335 18.6818C71.6032 17.8636 71.8381 16.697 71.8381 15.1818C71.8381 14.1742 71.7301 13.3163 71.5142 12.608C71.3021 11.8996 70.9953 11.3598 70.5938 10.9886C70.196 10.6174 69.7169 10.4318 69.1562 10.4318C68.3153 10.4318 67.6581 10.8466 67.1847 11.6761C66.7112 12.5019 66.4744 13.6705 66.4744 15.1818C66.4744 16.1894 66.5805 17.0455 66.7926 17.75C67.0047 18.4545 67.3097 18.9905 67.7074 19.358C68.1089 19.7254 68.5919 19.9091 69.1562 19.9091Z" fill="black"/>
<defs>
<filter id="filter0_di_236_2" x="5.15114" y="2.05656" width="20.5479" height="25.348" filterUnits="userSpaceOnUse" color-interpolation-filters="sRGB">
<feFlood flood-opacity="0" result="BackgroundImageFix"/>
<feColorMatrix in="SourceAlpha" type="matrix" values="0 0 0 0 0 0 0 0 0 0 0 0 0 0 0 0 0 0 127 0" result="hardAlpha"/>
<feOffset dy="0.494347"/>
<feGaussianBlur stdDeviation="2.10097"/>
<feColorMatrix type="matrix" values="0 0 0 0 0 0 0 0 0 0 0 0 0 0 0 0 0 0 0.3 0"/>
<feBlend mode="normal" in2="BackgroundImageFix" result="effect1_dropShadow_236_2"/>
<feBlend mode="normal" in="SourceGraphic" in2="effect1_dropShadow_236_2" result="shape"/>
<feColorMatrix in="SourceAlpha" type="matrix" values="0 0 0 0 0 0 0 0 0 0 0 0 0 0 0 0 0 0 127 0" result="hardAlpha"/>
<feOffset dx="0.865107" dy="0.494347"/>
<feGaussianBlur stdDeviation="0.55614"/>
<feComposite in2="hardAlpha" operator="arithmetic" k2="-1" k3="1"/>
<feColorMatrix type="matrix" values="0 0 0 0 1 0 0 0 0 1 0 0 0 0 1 0 0 0 0.15 0"/>
<feBlend mode="normal" in2="shape" result="effect2_innerShadow_236_2"/>
</filter>
<linearGradient id="paint0_linear_236_2" x1="0" y1="0" x2="30" y2="30" gradientUnits="userSpaceOnUse">
<stop stop-color="#FFB670"/>
<stop offset="1" stop-color="#EB7206"/>
</linearGradient>
<linearGradient id="paint1_linear_236_2" x1="0" y1="5.56421" x2="14.3445" y2="31.1554" gradientUnits="userSpaceOnUse">
<stop stop-color="#FFB670"/>
<stop offset="1" stop-color="#EB7206"/>
</linearGradient>
</defs>
</svg>
