<svg width="30" height="30" viewBox="0 0 30 30" fill="none" xmlns="http://www.w3.org/2000/svg">
<circle cx="15" cy="15" r="15" fill="url(#paint0_linear_203_3)"/>
<path d="M21.8756 14.9979C21.8151 14.9979 21.7566 15.0043 21.6968 15.007L20.6636 10.1864H23.2503V8.81163H19.8135C19.7109 8.8116 19.6097 8.83451 19.5171 8.87868C19.4246 8.92285 19.3431 8.98717 19.2787 9.06691C19.2142 9.14666 19.1684 9.23981 19.1446 9.33955C19.1209 9.43929 19.1197 9.54309 19.1412 9.64334L19.5523 11.5611H12.5186L11.8312 9.499H13.6272V8.12427H8.81563V9.499H10.3828L11.0984 11.6456L9.33191 15.1781C8.53021 14.9326 7.67271 14.9373 6.87371 15.1915C6.07472 15.4457 5.3722 15.9374 4.85978 16.6011C4.34737 17.2648 4.04941 18.0688 4.00563 18.9062C3.96184 19.7435 4.17431 20.5743 4.61471 21.2877C5.05511 22.0012 5.70252 22.5635 6.47064 22.8997C7.23876 23.2359 8.0911 23.3299 8.91404 23.1694C9.73699 23.0088 10.4914 22.6012 11.0768 22.0009C11.6622 21.4006 12.0507 20.6362 12.1906 19.8095H13.9846C14.1908 19.8099 14.3944 19.7638 14.5803 19.6746C14.7662 19.5853 14.9295 19.4552 15.058 19.2939L19.9097 13.2285L20.3521 15.2933C19.4012 15.6743 18.6266 16.3961 18.1795 17.3177C17.7324 18.2393 17.6449 19.2945 17.9342 20.2772C18.2235 21.2598 18.8687 22.0993 19.7439 22.6317C20.619 23.164 21.6612 23.351 22.6668 23.156C23.6724 22.9611 24.5693 22.3982 25.1821 21.5774C25.7949 20.7565 26.0797 19.7367 25.9808 18.7172C25.8819 17.6976 25.4064 16.7515 24.6473 16.0638C23.8882 15.376 22.8999 14.996 21.8756 14.9979ZM8.12827 21.8716C7.74218 21.8726 7.3602 21.7923 7.00719 21.636C6.65418 21.4796 6.33807 21.2506 6.07942 20.964C5.82077 20.6774 5.6254 20.3394 5.50601 19.9723C5.38663 19.6051 5.34591 19.2169 5.38652 18.833C5.42712 18.449 5.54813 18.0779 5.74167 17.7438C5.93521 17.4098 6.19694 17.1202 6.50982 16.894C6.82271 16.6678 7.17972 16.51 7.55763 16.4309C7.93553 16.3519 8.32585 16.3533 8.70318 16.4351L7.51342 18.8146L7.51961 18.8177C7.46981 18.9115 7.44284 19.0158 7.44091 19.1221C7.43985 19.2768 7.49137 19.4273 7.58702 19.5488C7.68268 19.6704 7.8168 19.7559 7.9674 19.7913C8.118 19.8267 8.27615 19.8099 8.41594 19.7436C8.55573 19.6773 8.66886 19.5655 8.73679 19.4265L8.74312 19.4296L9.92793 17.06C10.3518 17.4256 10.6534 17.9122 10.7922 18.4545C10.931 18.9967 10.9003 19.5684 10.7042 20.0927C10.5081 20.6169 10.1561 21.0685 9.69553 21.3865C9.23496 21.7046 8.68798 21.8739 8.12827 21.8716ZM12.1906 18.4347C12.0106 17.377 11.4254 16.431 10.5593 15.7977L11.7131 13.49L13.3612 18.4347H12.1906ZM14.5673 17.7061L12.9769 12.9358H18.3833L14.5673 17.7061ZM21.8756 21.8716C21.2567 21.8734 20.6555 21.6657 20.1696 21.2824C19.6838 20.8991 19.3419 20.3627 19.1996 19.7605C19.0573 19.1582 19.123 18.5255 19.386 17.9653C19.649 17.4051 20.0938 16.9504 20.648 16.6751L21.2033 19.2664L21.2171 19.2634C21.2473 19.4163 21.3293 19.554 21.4493 19.6535C21.5692 19.7529 21.7197 19.808 21.8756 19.8095C22.0579 19.8095 22.2327 19.737 22.3616 19.6081C22.4905 19.4792 22.5629 19.3044 22.5629 19.1221C22.5587 19.0741 22.5491 19.0267 22.5344 18.9808L22.5481 18.9777L21.9923 16.3844C22.7105 16.4136 23.3886 16.7233 23.8808 17.247C24.3731 17.7707 24.6403 18.4667 24.625 19.1852C24.6097 19.9038 24.3131 20.5878 23.799 21.0901C23.2849 21.5924 22.5943 21.873 21.8756 21.8716Z" fill="black"/>
<defs>
<linearGradient id="paint0_linear_203_3" x1="0" y1="0" x2="30" y2="30" gradientUnits="userSpaceOnUse">
<stop stop-color="#FFB670"/>
<stop offset="1" stop-color="#EB7206"/>
</linearGradient>
</defs>
</svg>
