<svg width="39" height="40" viewBox="0 0 39 40" fill="none" xmlns="http://www.w3.org/2000/svg">
<path d="M35.5799 32.3359L27.46 25.2578C26.6221 24.4844 25.7232 24.125 24.9996 24.1641C26.9191 21.8594 28.077 18.875 28.077 15.6094C28.0693 8.32031 22.3184 2.42188 15.2191 2.42188C8.11992 2.42188 2.36133 8.32031 2.36133 15.6094C2.36133 22.8984 8.11231 28.7969 15.2191 28.7969C18.4031 28.7969 21.3129 27.6094 23.56 25.6406C23.5219 26.3828 23.8723 27.3047 24.6264 28.1641L31.5275 36.4922C32.7082 37.8359 34.643 37.9531 35.816 36.7422C36.9967 35.5313 36.89 33.5547 35.5799 32.3359ZM15.2191 24.3906C10.4889 24.3906 6.64981 20.4531 6.64981 15.6016C6.64981 10.75 10.4813 6.8125 15.2191 6.8125C19.957 6.8125 23.7885 10.75 23.7885 15.6016C23.7885 20.4531 19.9494 24.3906 15.2191 24.3906Z" fill="black"/>
</svg>
