<svg width="46" height="36" viewBox="0 0 46 36" fill="none" xmlns="http://www.w3.org/2000/svg">
<g clip-path="url(#clip0_224_4)">
<path d="M45.2819 4.2591C43.6163 4.98211 41.8274 5.47088 39.9465 5.69058C41.8661 4.56607 43.3367 2.78412 44.031 0.663304C42.2075 1.72281 40.2119 2.4687 38.1308 2.86857C36.4372 1.10257 34.0221 0 31.3502 0C26.2217 0 22.0624 4.06721 22.0624 9.08721C22.0624 9.79849 22.1443 10.4924 22.3017 11.1586C14.5814 10.7791 7.73678 7.16134 3.15533 1.66418C2.35535 3.00674 1.89745 4.56771 1.89745 6.23318C1.89745 9.38549 3.53758 12.1668 6.02974 13.796C4.55442 13.7513 3.11148 13.3617 1.82155 12.6599V12.7747C1.82155 17.178 5.02304 20.8496 9.27284 21.6846C8.49216 21.8938 7.67287 22.0032 6.82529 22.0032C6.22602 22.0032 5.64461 21.9477 5.07664 21.8432C6.25875 25.4522 9.68938 28.0793 13.7531 28.1535C10.5739 30.5915 6.56798 32.0448 2.2171 32.0448C1.46772 32.0448 0.727084 32.0011 0 31.9153C4.11155 34.4944 8.99335 36 14.2394 36C31.3249 36 40.6691 22.1531 40.6691 10.1449C40.6691 9.75063 40.6602 9.35933 40.6408 8.96944C42.4614 7.68126 44.0329 6.08626 45.2819 4.2591Z" fill="black"/>
</g>
<defs>
<clipPath id="clip0_224_4">
<rect width="46" height="36" fill="white"/>
</clipPath>
</defs>
</svg>
