<svg width="270" height="270" viewBox="0 0 270 270" fill="none" xmlns="http://www.w3.org/2000/svg">
<g clip-path="url(#clip0_172_25)">
<path d="M90.0108 135C90.0108 110.148 110.153 89.9964 135.005 89.9964C159.858 89.9964 180.011 110.148 180.011 135C180.011 159.852 159.858 180.004 135.005 180.004C110.153 180.004 90.0108 159.852 90.0108 135ZM65.6817 135C65.6817 173.286 96.7179 204.321 135.005 204.321C173.293 204.321 204.329 173.286 204.329 135C204.329 96.714 173.293 65.6791 135.005 65.6791C96.7179 65.6791 65.6817 96.714 65.6817 135ZM190.873 62.9305C190.869 71.8775 198.12 79.1334 207.067 79.137C216.014 79.1406 223.271 71.8905 223.274 62.9435C223.278 53.9965 216.027 46.7406 207.08 46.737C198.137 46.7412 190.881 53.9878 190.873 62.9305ZM80.4632 244.887C67.3007 244.287 60.1465 242.095 55.3922 240.243C49.089 237.789 44.5917 234.867 39.8633 230.145C35.1349 225.423 32.208 220.93 29.7649 214.627C27.9116 209.875 25.7191 202.719 25.1207 189.557C24.4662 175.327 24.3355 171.053 24.3355 135.001C24.3355 98.9496 24.477 94.6868 25.1207 80.4449C25.7201 67.2829 27.9288 60.1409 29.7649 55.3748C32.2188 49.072 35.1414 44.5748 39.8633 39.8466C44.5853 35.1184 49.0782 32.1916 55.3922 29.7486C60.1444 27.8953 67.3007 25.7029 80.4632 25.1046C94.6939 24.4501 98.9687 24.3194 135.005 24.3194C171.042 24.3194 175.321 24.4609 189.564 25.1046C202.726 25.704 209.869 27.9126 214.635 29.7486C220.938 32.1916 225.435 35.1248 230.164 39.8466C234.892 44.5684 237.808 49.072 240.262 55.3748C242.115 60.1268 244.308 67.2829 244.906 80.4449C245.561 94.6868 245.691 98.9496 245.691 135.001C245.691 171.053 245.561 175.315 244.906 189.557C244.307 202.719 242.104 209.873 240.262 214.627C237.808 220.93 234.886 225.427 230.164 230.145C225.442 234.862 220.938 237.789 214.635 240.243C209.883 242.096 202.726 244.288 189.564 244.887C175.333 245.541 171.058 245.672 135.005 245.672C98.9525 245.672 94.6895 245.541 80.4632 244.887ZM79.3454 0.81756C64.9732 1.47204 55.1524 3.75084 46.5758 7.08804C37.6935 10.5343 30.1742 15.1578 22.6604 22.6595C15.1465 30.1612 10.5347 37.692 7.08832 46.5739C3.75099 55.1556 1.4721 64.9706 0.817593 79.3422C0.152286 93.7364 0 98.3383 0 135C0 171.662 0.152286 176.264 0.817593 190.658C1.4721 205.03 3.75099 214.844 7.08832 223.426C10.5347 232.303 15.1476 239.842 22.6604 247.341C30.1732 254.839 37.6935 259.456 46.5758 262.912C55.1686 266.249 64.9732 268.528 79.3454 269.182C93.7478 269.837 98.3423 270 135.005 270C171.669 270 176.271 269.848 190.665 269.182C205.039 268.528 214.853 266.249 223.435 262.912C232.312 259.456 239.837 254.842 247.35 247.341C254.864 239.839 259.466 232.303 262.922 223.426C266.26 214.844 268.55 205.029 269.193 190.658C269.848 176.253 270 171.662 270 135C270 98.3383 269.848 93.7364 269.193 79.3422C268.539 64.9696 266.26 55.1502 262.922 46.5739C259.466 37.6974 254.852 30.173 247.35 22.6595C239.848 15.1459 232.312 10.5343 223.446 7.08804C214.853 3.75084 205.038 1.46124 190.676 0.81756C176.281 0.16308 171.679 0 135.016 0C98.3531 0 93.7478 0.15228 79.3454 0.81756Z" fill="white"/>
</g>
<defs>
<clipPath id="clip0_172_25">
<rect width="270" height="270" fill="white"/>
</clipPath>
</defs>
</svg>
