<svg width="284" height="228" viewBox="0 0 284 228" fill="none" xmlns="http://www.w3.org/2000/svg">
<path d="M279.566 26.9743C269.283 31.5534 258.238 34.6489 246.626 36.0403C258.478 28.9184 267.557 17.6327 271.844 4.20093C260.586 10.9111 248.265 15.6351 235.416 18.1676C224.96 6.98297 210.05 0 193.554 0C161.89 0 136.211 25.759 136.211 57.5523C136.211 62.0571 136.717 66.4519 137.689 70.6714C90.0241 68.2675 47.7662 45.3552 19.4808 10.5398C14.5417 19.0427 11.7147 28.9288 11.7147 39.4768C11.7147 59.4414 21.8407 77.0564 37.2271 87.3748C28.1186 87.0916 19.21 84.6243 11.2461 80.1794V80.9067C11.2461 108.794 31.0118 132.047 57.2497 137.336C52.4299 138.661 47.3716 139.353 42.1387 139.353C38.4389 139.353 34.8494 139.002 31.3427 138.34C38.641 161.197 59.8214 177.836 84.9104 178.306C65.2823 193.746 40.5501 202.95 13.6882 202.95C9.06156 202.95 4.48895 202.673 0 202.13C25.3844 218.465 55.5242 228 87.9129 228C193.397 228 251.088 140.303 251.088 64.2508C251.088 61.754 251.033 59.2758 250.913 56.8065C262.153 48.648 271.855 38.5463 279.566 26.9743Z" fill="white"/>
</svg>
