<svg width="40" height="40" viewBox="0 0 40 40" fill="none" xmlns="http://www.w3.org/2000/svg">
<rect x="0.5" y="0.5" width="39" height="39" rx="19.5" fill="#3A0606" fill-opacity="0.97" stroke="url(#paint0_linear_99_57)"/>
<g filter="url(#filter0_di_99_57)">
<path d="M18.3582 31.6229C17.8822 31.6229 17.3608 31.6116 16.7942 31.5889C16.2502 31.5663 15.6948 31.5323 15.1282 31.4869C14.5842 31.4416 14.0402 31.3849 13.4962 31.3169C12.9522 31.2489 12.4535 31.1583 12.0002 31.0449V8.19694C12.4535 8.08361 12.9522 7.99294 13.4962 7.92494C14.0402 7.85694 14.5842 7.80028 15.1282 7.75494C15.6948 7.70961 16.2502 7.67561 16.7942 7.65294C17.3382 7.63028 17.8482 7.61894 18.3242 7.61894C19.6842 7.61894 20.9535 7.72094 22.1322 7.92494C23.3335 8.12894 24.3648 8.48028 25.2262 8.97894C26.1102 9.45494 26.8015 10.0896 27.3002 10.8829C27.7988 11.6763 28.0482 12.6509 28.0482 13.8069C28.0482 15.0989 27.7422 16.1643 27.1302 17.0029C26.5182 17.8189 25.7022 18.4309 24.6822 18.8389C26.0648 19.2469 27.1642 19.8929 27.9802 20.7769C28.7962 21.6609 29.2042 22.9076 29.2042 24.5169C29.2042 26.8743 28.3315 28.6536 26.5862 29.8549C24.8635 31.0336 22.1208 31.6229 18.3582 31.6229ZM15.2642 20.4369V28.7329C15.5135 28.7556 15.8082 28.7783 16.1482 28.8009C16.4428 28.8236 16.7828 28.8463 17.1682 28.8689C17.5762 28.8689 18.0408 28.8689 18.5622 28.8689C19.5368 28.8689 20.4548 28.8123 21.3162 28.6989C22.2002 28.5629 22.9708 28.3363 23.6282 28.0189C24.2855 27.7016 24.8068 27.2596 25.1922 26.6929C25.6002 26.1263 25.8042 25.4123 25.8042 24.5509C25.8042 23.7803 25.6568 23.1343 25.3622 22.6129C25.0675 22.0689 24.6368 21.6383 24.0702 21.3209C23.5262 21.0036 22.8688 20.7769 22.0982 20.6409C21.3275 20.5049 20.4662 20.4369 19.5142 20.4369H15.2642ZM15.2642 17.7849H18.7322C19.5482 17.7849 20.3188 17.7283 21.0442 17.6149C21.7695 17.5016 22.3928 17.2976 22.9142 17.0029C23.4582 16.7083 23.8775 16.3229 24.1722 15.8469C24.4895 15.3709 24.6482 14.7703 24.6482 14.0449C24.6482 13.3649 24.4895 12.7983 24.1722 12.3449C23.8548 11.8689 23.4128 11.4949 22.8462 11.2229C22.3022 10.9283 21.6562 10.7129 20.9082 10.5769C20.1602 10.4409 19.3668 10.3729 18.5282 10.3729C17.6895 10.3729 17.0322 10.3843 16.5562 10.4069C16.0802 10.4296 15.6495 10.4636 15.2642 10.5089V17.7849Z" fill="url(#paint1_linear_99_57)"/>
</g>
<defs>
<filter id="filter0_di_99_57" x="7.79817" y="3.9113" width="25.608" height="32.408" filterUnits="userSpaceOnUse" color-interpolation-filters="sRGB">
<feFlood flood-opacity="0" result="BackgroundImageFix"/>
<feColorMatrix in="SourceAlpha" type="matrix" values="0 0 0 0 0 0 0 0 0 0 0 0 0 0 0 0 0 0 127 0" result="hardAlpha"/>
<feOffset dy="0.494347"/>
<feGaussianBlur stdDeviation="2.10097"/>
<feColorMatrix type="matrix" values="0 0 0 0 0 0 0 0 0 0 0 0 0 0 0 0 0 0 0.3 0"/>
<feBlend mode="normal" in2="BackgroundImageFix" result="effect1_dropShadow_99_57"/>
<feBlend mode="normal" in="SourceGraphic" in2="effect1_dropShadow_99_57" result="shape"/>
<feColorMatrix in="SourceAlpha" type="matrix" values="0 0 0 0 0 0 0 0 0 0 0 0 0 0 0 0 0 0 127 0" result="hardAlpha"/>
<feOffset dx="0.865107" dy="0.494347"/>
<feGaussianBlur stdDeviation="0.55614"/>
<feComposite in2="hardAlpha" operator="arithmetic" k2="-1" k3="1"/>
<feColorMatrix type="matrix" values="0 0 0 0 1 0 0 0 0 1 0 0 0 0 1 0 0 0 0.15 0"/>
<feBlend mode="normal" in2="shape" result="effect2_innerShadow_99_57"/>
</filter>
<linearGradient id="paint0_linear_99_57" x1="0" y1="0" x2="40" y2="40" gradientUnits="userSpaceOnUse">
<stop stop-color="#FFB670"/>
<stop offset="1" stop-color="#EB7206"/>
</linearGradient>
<linearGradient id="paint1_linear_99_57" x1="0" y1="7.41895" x2="19.1261" y2="41.5405" gradientUnits="userSpaceOnUse">
<stop stop-color="#FFB670"/>
<stop offset="1" stop-color="#EB7206"/>
</linearGradient>
</defs>
</svg>
