<svg width="35" height="35" viewBox="0 0 35 35" fill="none" xmlns="http://www.w3.org/2000/svg">
<path d="M17.5 2.1875C14.4715 2.1875 11.511 3.08556 8.99284 4.76812C6.47471 6.45068 4.51207 8.84217 3.3531 11.6402C2.19413 14.4382 1.8909 17.517 2.48173 20.4873C3.07257 23.4577 4.53094 26.1861 6.67243 28.3276C8.81392 30.4691 11.5424 31.9274 14.5127 32.5183C17.483 33.1091 20.5619 32.8059 23.3598 31.6469C26.1578 30.4879 28.5493 28.5253 30.2319 26.0072C31.9144 23.489 32.8125 20.5285 32.8125 17.5C32.8125 13.4389 31.1992 9.54408 28.3276 6.67243C25.4559 3.80078 21.5611 2.1875 17.5 2.1875ZM17.5 30.625C14.9041 30.625 12.3665 29.8552 10.2081 28.413C8.04975 26.9708 6.36749 24.921 5.37409 22.5227C4.38069 20.1244 4.12077 17.4854 4.6272 14.9394C5.13363 12.3934 6.38367 10.0548 8.21923 8.21922C10.0548 6.38366 12.3934 5.13362 14.9394 4.62719C17.4854 4.12076 20.1244 4.38068 22.5227 5.37408C24.921 6.36748 26.9708 8.04975 28.413 10.2081C29.8552 12.3665 30.625 14.9041 30.625 17.5C30.625 20.981 29.2422 24.3194 26.7808 26.7808C24.3194 29.2422 20.981 30.625 17.5 30.625Z" fill="black"/>
<path d="M16.4062 8.75H18.5938V20.7812H16.4062V8.75Z" fill="black"/>
<path d="M17.5 24.0625C17.1755 24.0625 16.8583 24.1587 16.5885 24.339C16.3187 24.5193 16.1084 24.7755 15.9843 25.0753C15.8601 25.3751 15.8276 25.7049 15.8909 26.0232C15.9542 26.3414 16.1105 26.6338 16.3399 26.8632C16.5693 27.0927 16.8617 27.2489 17.1799 27.3122C17.4982 27.3755 17.8281 27.343 18.1278 27.2189C18.4276 27.0947 18.6839 26.8844 18.8641 26.6146C19.0444 26.3448 19.1406 26.0276 19.1406 25.7031C19.1406 25.268 18.9678 24.8507 18.6601 24.543C18.3524 24.2354 17.9351 24.0625 17.5 24.0625Z" fill="black"/>
</svg>
