<svg width="34" height="34" viewBox="0 0 34 34" fill="none" xmlns="http://www.w3.org/2000/svg">
<g clip-path="url(#clip0_224_6)">
<path d="M11.3347 17C11.3347 13.8705 13.8711 11.3329 17.0007 11.3329C20.1303 11.3329 22.668 13.8705 22.668 17C22.668 20.1295 20.1303 22.6671 17.0007 22.6671C13.8711 22.6671 11.3347 20.1295 11.3347 17ZM8.27103 17C8.27103 21.8212 12.1793 25.7293 17.0007 25.7293C21.8221 25.7293 25.7303 21.8212 25.7303 17C25.7303 12.1788 21.8221 8.2707 17.0007 8.2707C12.1793 8.2707 8.27103 12.1788 8.27103 17ZM24.0358 7.92458C24.0354 9.05125 24.9484 9.96495 26.0751 9.9654C27.2018 9.96585 28.1155 9.05288 28.116 7.92622C28.1164 6.79956 27.2034 5.88585 26.0767 5.8854C24.9506 5.88592 24.0368 6.79846 24.0358 7.92458ZM10.1324 30.8376C8.47491 30.7621 7.57401 30.486 6.97531 30.2528C6.18158 29.9438 5.61526 29.5758 5.01983 28.9812C4.42439 28.3866 4.05582 27.8208 3.74817 27.0271C3.51479 26.4287 3.2387 25.5276 3.16335 23.8702C3.08093 22.0782 3.06447 21.54 3.06447 17.0001C3.06447 12.4603 3.08229 11.9235 3.16335 10.1301C3.23883 8.47266 3.51696 7.5733 3.74817 6.97313C4.05718 6.17943 4.42521 5.61313 5.01983 5.01772C5.61444 4.42231 6.18022 4.05375 6.97531 3.74612C7.57373 3.51274 8.47491 3.23666 10.1324 3.16132C11.9244 3.0789 12.4627 3.06245 17.0007 3.06245C21.5386 3.06245 22.0775 3.08026 23.871 3.16132C25.5285 3.2368 26.4279 3.51492 27.0281 3.74612C27.8218 4.05375 28.3881 4.42313 28.9836 5.01772C29.579 5.61231 29.9462 6.17943 30.2552 6.97313C30.4886 7.57153 30.7647 8.47266 30.84 10.1301C30.9225 11.9235 30.9389 12.4603 30.9389 17.0001C30.9389 21.54 30.9225 22.0767 30.84 23.8702C30.7646 25.5276 30.4871 26.4285 30.2552 27.0271C29.9462 27.8208 29.5782 28.3871 28.9836 28.9812C28.389 29.5752 27.8218 29.9438 27.0281 30.2528C26.4297 30.4862 25.5285 30.7622 23.871 30.8376C22.079 30.92 21.5407 30.9365 17.0007 30.9365C12.4607 30.9365 11.9239 30.92 10.1324 30.8376ZM9.99164 0.102952C8.18182 0.185368 6.94512 0.472328 5.8651 0.892568C4.74659 1.32654 3.79972 1.90876 2.85353 2.85342C1.90734 3.79807 1.3266 4.7464 0.892604 5.86486C0.472347 6.94552 0.185375 8.18149 0.102956 9.99124C0.0191768 11.8038 0 12.3833 0 17C0 21.6167 0.0191768 22.1962 0.102956 24.0088C0.185375 25.8186 0.472347 27.0545 0.892604 28.1351C1.3266 29.2529 1.90748 30.2023 2.85353 31.1466C3.79958 32.0908 4.74659 32.6722 5.8651 33.1074C6.94716 33.5277 8.18182 33.8146 9.99164 33.897C11.8053 33.9795 12.3838 34 17.0007 34C21.6175 34 22.197 33.9808 24.0097 33.897C25.8197 33.8146 27.0556 33.5277 28.1363 33.1074C29.2541 32.6722 30.2016 32.0912 31.1478 31.1466C32.094 30.2019 32.6735 29.2529 33.1088 28.1351C33.529 27.0545 33.8173 25.8185 33.8984 24.0088C33.9808 22.1948 34 21.6167 34 17C34 12.3833 33.9808 11.8038 33.8984 9.99124C33.816 8.18135 33.529 6.94484 33.1088 5.86486C32.6735 4.74708 32.0925 3.79957 31.1478 2.85342C30.2031 1.90726 29.2541 1.32654 28.1376 0.892568C27.0556 0.472328 25.8195 0.184008 24.0111 0.102952C22.1984 0.020536 21.6189 0 17.002 0C12.3852 0 11.8053 0.019176 9.99164 0.102952Z" fill="black"/>
</g>
<defs>
<clipPath id="clip0_224_6">
<rect width="34" height="34" fill="white"/>
</clipPath>
</defs>
</svg>
