<svg width="61" height="61" viewBox="0 0 61 61" fill="none" xmlns="http://www.w3.org/2000/svg">
<circle cx="30.5" cy="30.5" r="30.5" fill="#FF9C07"/>
<line x1="28.0601" y1="14.895" x2="12.2001" y2="14.895" stroke="#FDFDFD" stroke-width="6"/>
<path d="M40.7381 14.8953H40.7719C40.7808 14.8956 40.795 14.8963 40.8141 14.8975C40.8846 14.9021 41.0162 14.9144 41.1913 14.9468C41.5459 15.0123 42.0415 15.1529 42.5639 15.4484L43.2335 15.8272L43.765 16.4323C44.1752 16.8994 44.6002 17.555 44.9513 18.4889L44.9735 18.5481L44.9891 18.5846C44.9937 18.5965 45.0038 18.6232 45.0182 18.664C45.0496 18.7531 45.1008 18.908 45.1589 19.1209C45.2754 19.5484 45.4162 20.1986 45.4826 21.0125L45.5642 22.0135L45.4718 23.022C45.4005 23.8009 45.2442 24.6514 44.9586 25.5512C44.9439 25.5817 44.9255 25.6192 44.9033 25.6627C44.8199 25.8265 44.6895 26.0645 44.5153 26.3322L44.2949 26.6712L44.0565 26.9588C43.8494 27.2087 43.6322 27.4288 43.4118 27.6063L40.0643 30.3023L43.7019 32.4863C43.7076 32.4904 43.715 32.4958 43.724 32.5025C43.7765 32.5415 43.8809 32.6235 44.0176 32.7525C44.2908 33.0104 44.6872 33.4509 45.0595 34.1095L45.5145 34.9144L45.7738 35.8859C45.9747 36.6385 46.1119 37.5613 46.1044 38.6804L46.1041 38.7221L46.1048 38.7528L46.1048 38.753L46.1048 38.7564C46.1049 38.7632 46.105 38.779 46.1049 38.8033C46.1046 38.852 46.1036 38.934 46.0999 39.0445C46.0924 39.2664 46.0742 39.5977 46.0311 40.0008C45.9431 40.8233 45.7597 41.8639 45.3981 42.8603L44.8841 44.2766L44.0904 45.0633C43.5272 45.6214 42.7328 46.0675 41.3886 46.0779L41.3884 46.0779C39.5032 46.0925 37.6711 46.1001 35.9743 46.1032L33.9919 46.1069L31.9692 46.103C31.0647 46.1013 30.246 46.0986 29.5349 46.0956V35.5055V32.5055H26.5349V28.4676H29.5349V25.4676V14.8953H31.7194H32.5537H34.7194H35.5537H40.7381Z" fill="#FF9C07" stroke="#FDFDFD" stroke-width="6" stroke-miterlimit="16" stroke-linecap="square" stroke-dasharray="192 71"/>
</svg>
