<svg width="30" height="30" viewBox="0 0 30 30" fill="none" xmlns="http://www.w3.org/2000/svg">
<circle cx="15" cy="15" r="15" fill="url(#paint0_linear_203_6)"/>
<path d="M24 20.434V11.15C24 8.081 20.4579 7.41 15.8571 7.3L16.875 5.65H21.2857V4H7.71429V5.65H14.1607L13.1429 7.3C8.88143 7.421 5 8.103 5 11.15V20.434C5 22.029 6.615 23.36 8.515 23.701L6.35714 25.45V26H9.38357L12.0979 23.8H17.2143L19.9286 26H22.6429V25.45L20.6071 23.8H20.4986C22.7921 23.8 24 22.293 24 20.434ZM14.5 22.15C13.9601 22.15 13.4423 21.9762 13.0605 21.6667C12.6788 21.3573 12.4643 20.9376 12.4643 20.5C12.4643 20.0624 12.6788 19.6427 13.0605 19.3333C13.4423 19.0238 13.9601 18.85 14.5 18.85C15.0399 18.85 15.5577 19.0238 15.9395 19.3333C16.3212 19.6427 16.5357 20.0624 16.5357 20.5C16.5357 20.9376 16.3212 21.3573 15.9395 21.6667C15.5577 21.9762 15.0399 22.15 14.5 22.15ZM21.2857 17.2H7.71429V11.7H21.2857V17.2Z" fill="black"/>
<defs>
<linearGradient id="paint0_linear_203_6" x1="0" y1="0" x2="30" y2="30" gradientUnits="userSpaceOnUse">
<stop stop-color="#FFB670"/>
<stop offset="1" stop-color="#EB7206"/>
</linearGradient>
</defs>
</svg>
