<svg width="50" height="50" viewBox="0 0 50 50" fill="none" xmlns="http://www.w3.org/2000/svg">
<g clip-path="url(#clip0_233_2)">
<path d="M50.0001 32.1409L46.5825 30.1064V32.4299L50.0001 33.2899V32.1409Z" fill="#A50E0E"/>
<path d="M0 32.1409L3.41784 30.1064V32.4299L0 33.2899V32.1409Z" fill="#A50E0E"/>
<path d="M3.41772 12.5V37.5L25 50L46.5823 37.5V12.5L25 0L3.41772 12.5Z" fill="#ECB20C"/>
<path d="M17.1641 20.6842L25 5.39125V0L3.41772 12.5L17.1641 20.6842Z" fill="url(#paint0_linear_233_2)"/>
<path d="M35.2106 30.1064L25.0002 44.6087V49.9999L46.5825 37.4999L41.9281 34.8042L35.2106 30.1064Z" fill="url(#paint1_linear_233_2)"/>
<path d="M24.6268 38.2062L8.07193 34.8042L3.41772 37.5L25 50V44.6087L24.6268 38.2062Z" fill="url(#paint2_linear_233_2)"/>
<path d="M25.369 12.0212L41.9281 15.1957L46.5825 12.5L25.0002 0V5.39125L25.369 12.0212Z" fill="url(#paint3_linear_233_2)"/>
<path d="M17.9102 29.4452L8.77067 15.636L3.41772 12.5V37.5L8.07193 34.8042L17.9102 29.4452Z" fill="url(#paint4_linear_233_2)"/>
<path d="M32.0896 29.4452L41.2291 15.636L46.5824 12.5V37.5L41.9279 34.8042L32.0896 29.4452Z" fill="url(#paint5_linear_233_2)"/>
<path d="M8.07202 15.1959V34.8044L25.0001 44.6089L41.9279 34.8044V15.1959L25.0001 5.39136L8.07202 15.1959Z" fill="url(#paint6_linear_233_2)"/>
<path d="M16.1906 38.8803H2.14992C0.962566 38.8803 0 38.011 0 36.9388V31.9998H13.8665C15.15 31.9998 16.1906 32.9393 16.1906 34.0985V38.8803Z" fill="url(#paint7_linear_233_2)"/>
<path d="M47.85 39.3102H33.8093V34.5284C33.8093 33.3694 34.8497 32.4297 36.1334 32.4297H49.9999V37.3687C49.9999 38.4409 49.0374 39.3102 47.85 39.3102Z" fill="url(#paint8_linear_233_2)"/>
<path d="M38.1172 42.7505H11.8826C11.2373 42.7505 10.7144 42.278 10.7144 41.6955V34.345C10.7144 33.7623 11.2376 33.29 11.8826 33.29H38.1174C38.7628 33.29 39.2857 33.7625 39.2857 34.345V41.6955C39.2857 42.2783 38.7625 42.7505 38.1172 42.7505Z" fill="url(#paint9_linear_233_2)"/>
<path d="M25.0002 44.9006C29.2082 44.9006 32.6194 41.8201 32.6194 38.0201C32.6194 34.2202 29.2082 31.1396 25.0002 31.1396C20.7923 31.1396 17.3811 34.2202 17.3811 38.0201C17.3811 41.8201 20.7923 44.9006 25.0002 44.9006Z" fill="#F6F6F8"/>
<path d="M25.0002 43.5979C28.4113 43.5979 31.1765 41.1007 31.1765 38.0204C31.1765 34.94 28.4113 32.4429 25.0002 32.4429C21.5892 32.4429 18.824 34.94 18.824 38.0204C18.824 41.1007 21.5892 43.5979 25.0002 43.5979Z" fill="url(#paint10_linear_233_2)"/>
<path d="M25.0002 33.8542L26.499 36.597L29.8509 37.0367L27.4256 39.1717L27.9981 42.1862L25.0002 40.763L22.002 42.1862L22.5748 39.1717L20.1494 37.0367L23.5011 36.597L25.0002 33.8542Z" fill="#FFB05A"/>
<path d="M25.0002 33.8542L25.1951 37.932L26.499 36.597L28.175 36.8167L29.8509 37.0367L25.1951 37.932L27.4256 39.1717L27.7118 40.679L27.9981 42.1862L25.1951 37.932L25.0002 40.763L23.5011 41.4747L22.002 42.1862L25.1951 37.932L22.5748 39.1717L21.362 38.1042L20.1494 37.0367L25.1951 37.932L23.5011 36.597L24.2505 35.2255L25.0002 33.8542Z" fill="#D17A21"/>
<path d="M12.7287 15.2632L13.137 13.7879C13.1893 13.5987 13.2979 13.4257 13.4507 13.2877C13.6035 13.1497 13.7951 13.0517 14.0046 13.0044L15.6382 12.6357C15.6823 12.6257 15.6823 12.5692 15.6382 12.5594L14.0046 12.1907C13.7951 12.1434 13.6035 12.0454 13.4507 11.9074C13.2979 11.7694 13.1893 11.5964 13.137 11.4072L12.7287 9.93191C12.7176 9.89216 12.655 9.89216 12.6442 9.93191L12.2359 11.4072C12.1836 11.5964 12.0751 11.7694 11.9222 11.9074C11.7694 12.0454 11.5779 12.1434 11.3683 12.1907L9.73467 12.5594C9.69066 12.5694 9.69066 12.6259 9.73467 12.6357L11.3683 13.0044C11.5779 13.0517 11.7694 13.1497 11.9222 13.2877C12.0751 13.4257 12.1836 13.5987 12.2359 13.7879L12.6442 15.2632C12.6553 15.3029 12.7179 15.3029 12.7287 15.2632Z" fill="white"/>
<path d="M41.8227 31.4447L42.1288 30.3382C42.1682 30.1962 42.2496 30.0664 42.3642 29.9629C42.4788 29.8594 42.6224 29.7859 42.7797 29.7504L44.005 29.4737C44.0379 29.4662 44.0379 29.4239 44.005 29.4164L42.7797 29.1397C42.6224 29.1042 42.4788 29.0307 42.3642 28.9272C42.2496 28.8237 42.1682 28.6939 42.1288 28.5519L41.8227 27.4454C41.8144 27.4157 41.7676 27.4157 41.7593 27.4454L41.4531 28.5519C41.4138 28.6939 41.3324 28.8237 41.2178 28.9272C41.1032 29.0307 40.9595 29.1042 40.8022 29.1397L39.577 29.4164C39.544 29.4239 39.544 29.4662 39.577 29.4737L40.8022 29.7504C40.9595 29.7859 41.1032 29.8594 41.2178 29.9629C41.3324 30.0664 41.4138 30.1962 41.4531 30.3382L41.7593 31.4447C41.7676 31.4744 41.8144 31.4744 41.8227 31.4447Z" fill="white"/>
<path d="M19.8037 26.4342L21.4116 24.4502C22.293 25.2115 23.3132 25.725 24.4502 25.725C25.8042 25.725 26.6856 25.2117 26.6856 24.221C26.6856 23.0877 26.0198 22.4142 22.9605 22.4142V20.201C25.4512 20.201 26.2352 19.5102 26.2352 18.465C26.2352 17.5625 25.6478 17.0662 24.5684 17.0662C23.5881 17.0662 22.8423 17.4727 21.9611 18.1635L20.1952 16.2342C21.5492 15.2062 23.0006 14.605 24.7248 14.605C27.7456 14.605 29.7256 15.8797 29.7256 18.2342C29.7256 19.545 28.9416 20.573 27.3722 21.1397V21.2277C29.0008 21.6705 30.1968 22.733 30.1968 24.433C30.1968 26.8942 27.7061 28.2755 24.8031 28.2755C22.4893 28.2755 20.8623 27.5487 19.8037 26.4342Z" fill="#D56E1F"/>
</g>
<defs>
<linearGradient id="paint0_linear_233_2" x1="14.186" y1="6.22465" x2="16.9107" y2="9.95059" gradientUnits="userSpaceOnUse">
<stop stop-color="#EFEDB3"/>
<stop offset="1" stop-color="#F8AB30"/>
</linearGradient>
<linearGradient id="paint1_linear_233_2" x1="35.4515" y1="43.3277" x2="33.4464" y2="39.9179" gradientUnits="userSpaceOnUse">
<stop stop-color="#F8AB30"/>
<stop offset="1" stop-color="#EFEDB3"/>
</linearGradient>
<linearGradient id="paint2_linear_233_2" x1="13.7872" y1="44.2421" x2="18.3651" y2="37.689" gradientUnits="userSpaceOnUse">
<stop stop-color="#E1783A"/>
<stop offset="1" stop-color="#EB9130"/>
</linearGradient>
<linearGradient id="paint3_linear_233_2" x1="36.0024" y1="6.05351" x2="32.5473" y2="10.138" gradientUnits="userSpaceOnUse">
<stop stop-color="#E1783A"/>
<stop offset="1" stop-color="#EB9130"/>
</linearGradient>
<linearGradient id="paint4_linear_233_2" x1="3.41761" y1="25" x2="8.83118" y2="25" gradientUnits="userSpaceOnUse">
<stop stop-color="#E46F26"/>
<stop offset="1" stop-color="#FFA835"/>
</linearGradient>
<linearGradient id="paint5_linear_233_2" x1="46.5823" y1="25" x2="41.2508" y2="25" gradientUnits="userSpaceOnUse">
<stop stop-color="#E46F26"/>
<stop offset="1" stop-color="#FFA835"/>
</linearGradient>
<linearGradient id="paint6_linear_233_2" x1="25" y1="44.6088" x2="25" y2="5.39143" gradientUnits="userSpaceOnUse">
<stop stop-color="#ED9448"/>
<stop offset="1" stop-color="#F5CC75"/>
</linearGradient>
<linearGradient id="paint7_linear_233_2" x1="0" y1="35.4401" x2="16.1905" y2="35.4401" gradientUnits="userSpaceOnUse">
<stop stop-color="#BE4244"/>
<stop offset="1" stop-color="#D33730"/>
</linearGradient>
<linearGradient id="paint8_linear_233_2" x1="33.8095" y1="35.87" x2="50" y2="35.87" gradientUnits="userSpaceOnUse">
<stop stop-color="#BE4244"/>
<stop offset="1" stop-color="#D33730"/>
</linearGradient>
<linearGradient id="paint9_linear_233_2" x1="24.9999" y1="42.7506" x2="24.9999" y2="33.29" gradientUnits="userSpaceOnUse">
<stop stop-color="#FF544A"/>
<stop offset="1" stop-color="#F7726E"/>
</linearGradient>
<linearGradient id="paint10_linear_233_2" x1="25.0001" y1="43.5979" x2="25.0001" y2="32.4428" gradientUnits="userSpaceOnUse">
<stop stop-color="#ED9448"/>
<stop offset="1" stop-color="#F5CC75"/>
</linearGradient>
<clipPath id="clip0_233_2">
<rect width="50" height="50" fill="white"/>
</clipPath>
</defs>
</svg>
